<?xml version="1.0" encoding="utf-8"?>
<!-- Generator: Adobe Illustrator 24.0.1, SVG Export Plug-In . SVG Version: 6.00 Build 0)  -->
<svg version="1.1" id="Layer_1" xmlns="http://www.w3.org/2000/svg" xmlns:xlink="http://www.w3.org/1999/xlink" x="0px" y="0px"
	 viewBox="0 0 120.6 55" style="enable-background:new 0 0 120.6 55;" xml:space="preserve">
<style type="text/css">
	.st0{fill:#AF151A;}
	.st1{fill:#FCFAFA;}
</style>
<path class="st0" d="M46.8,45.6c-5.6,0.1-17.5-3-22.3-10.8c27.4-9.4,31.7-20.8,28.9-25.7c-2.8-4.9-12.4-6-25.7-1.7
	C14.3,11.7,2.3,28.3,3.6,28.7c0.4,0.5,1.3-0.3,2.8-2.5c5.5-7.8,14.7-13.3,20.2-16.2c5.5-2.9,23.2-5.6,25,1.4
	c1.8,7-14.1,15.9-21.9,19.4c-6.8,3.1-6.8,2.5-6.7,2.3l-0.3,0.4c0,0,0,0,0,0c0.1-0.1,0.2-0.3,0.3-0.4c0,0,0,0,0,0l0,0
	c2.1-2.8,16.6-20,15.5-20.3c-1.1-0.4-7.9,7.2-11.9,11.7c-4,4.5-11.6,15.8-12.1,17.6c-0.5,1.8-0.2,5,1,4.8c1.1-0.2,0.7-2.5,0.8-3.7
	c0.1-1,3.3-5.5,5.5-8.6c0,0,0.2,0,0.6,0.1c1.1,4,3.3,5.2,6.2,7.6c2.9,2.4,12.2,5.5,18.3,5.2c6.1-0.3,7.9-2.4,7-3.2
	C52.6,43.6,52.4,45.6,46.8,45.6 M22,34.6c0.1-0.2,0.3-0.3,0.4-0.5c0,0,0,0,0,0L22,34.6z M22.5,33.9L22.5,33.9
	C22.5,33.9,22.5,33.9,22.5,33.9C22.5,33.9,22.5,33.9,22.5,33.9L22.5,33.9z"/>
<path class="st0" d="M83.8,26.8c0,0.9,0.7,1.6,1.6,1.6c0.9,0,1.6-0.7,1.6-1.6c0-0.9-0.7-1.6-1.6-1.6C84.5,25.3,83.8,26,83.8,26.8"/>
<path class="st0" d="M106.2,32.1c-1.5-0.5,3-4.5,1.6-5.6c-1.4-1.1-4.7,0.9-6.1,1.9c-1.4,1-5.4,5.1-6.9,4.8c-1.4-0.2,4.6-5.9,3.2-6.7
	c-1.4-0.8-5.1,4.7-5.4,5.2c-0.4,0.5-4,2.6-7.2,2.7c-3.3,0.1,0.9-4.8-1.6-5.1c-0.4-0.1-0.8,0.1-1.1,0.3l0,0c0,0-5.2,1.3-7.5,2.1
	c0,0,0,0,0,0c0.1-1.2-0.2-2.3-1.2-2.7c-3.8-1.7-8.9,4.2-10.1,5.4c-1.2,1.2,2.1-4,2.9-4.6c3.3-0.1,21.7-19.3,18-21.1
	C80.9,6.8,66,23.2,62.1,31.1c-0.3,0.6-0.6,1.2-0.8,1.7c-0.9,0.5-3.8,1.9-5.8,2.1c-2.4,0.2-0.7-3.4-0.2-4.6c0.5-1.2,0.8-1.5,0.4-1.7
	c-0.4-0.2-1,0-3.4,2.7c-2.4,2.7-3.4,2.8-4,2.7c-0.7,0,0.4-2.1,1-2.9c0.5-0.8,1.7-2.8,1-2.9c-1-0.2-5.9,5.9-3,7.2
	c2.9,1.3,6-5.2,5.6-3.3c-0.4,1.9,0.5,3.6,2,3.9c1.5,0.3,5.2-1.4,5.8-1.6c-2.2,5.6-1.5,8.2,0.2,7.6c1.9-0.7,0.7-1.6,2.9-5.6
	c2.2-4,7.9-6,9-5.7c1.1,0.3,0.4,2.2,0.4,2.2s-7.9,3.6-5.1,5.8c2.6,1.1,6-2.8,6.9-6c0,0,0,0,0,0c0.5-0.4,6-1.6,6.9-1.8
	c-0.5,1.5-0.1,3.8,1.8,4.5c3,1.2,8.8-2.4,8.8-2.4s-1.1,2.4,2,2.4c1.7,0,4.9-3.5,6.1-4.6c1.2-1.1,5-3.1,5.6-2.9
	c0.6,0.1-4.3,3.4-2,5.4c0.6,0.5,1.1,0.7,1.6,0.7c0,0,0,0,0,0c2.8,0.2,10.3-3,10-3.5C115.4,29.9,109.2,32.9,106.2,32.1 M67.1,28.5
	c1.4-3.7,13.2-19.6,16.2-18.4c3.1,1.2-10.9,15-12.4,16.2C69.5,27.5,66.5,30,67.1,28.5z M69.2,37.5c-1.3-0.9,2.3-3,3.3-3
	C72.4,34.5,70.5,38.4,69.2,37.5z"/>
<path class="st1" d="M65.1,46.9c-0.1-0.2-0.2-0.4-0.3-0.5c-0.1-0.1-0.2-0.2-0.3-0.3C64.4,46,64.3,46,64.2,46c-0.1,0-0.2,0-0.3,0
	h-0.2v1.3c0,0.3,0,0.5,0,0.7c0,0.2-0.1,0.3-0.2,0.4c-0.1,0.1-0.1,0.1-0.2,0.2c-0.1,0.1-0.2,0.1-0.3,0.1c-0.2,0-0.4-0.1-0.6-0.2
	c-0.1-0.1-0.2-0.2-0.2-0.4c0-0.2,0-0.4,0-0.7v-3.6c0-0.2,0-0.3,0-0.4c0-0.1,0-0.2,0-0.3c0-0.1,0-0.1,0.1-0.2c0-0.1,0.1-0.1,0.1-0.2
	c0-0.1,0.1-0.1,0.2-0.1c0.1,0,0.1-0.1,0.2-0.1c0.1,0,0.2,0,0.3,0c0.1,0,0.2,0,0.4,0h1.5c0.2,0,0.4,0,0.7,0c0.3,0,0.5,0.1,0.7,0.1
	c0.2,0.1,0.3,0.2,0.5,0.3c0.1,0.1,0.2,0.2,0.3,0.4c0.1,0.1,0.1,0.3,0.2,0.4c0,0.2,0.1,0.3,0.1,0.4c0,0.3-0.1,0.5-0.2,0.8
	c-0.1,0.2-0.3,0.4-0.4,0.6c-0.2,0.1-0.3,0.2-0.5,0.2c-0.2,0.1-0.3,0.1-0.4,0.1c0.2,0.1,0.4,0.2,0.5,0.3c0.1,0.1,0.3,0.3,0.4,0.5
	c0.1,0.1,0.1,0.2,0.2,0.3c0.1,0.1,0.1,0.2,0.2,0.4c0.1,0.1,0.1,0.2,0.1,0.4c0,0.1,0.1,0.2,0.1,0.3c0,0.2-0.1,0.3-0.2,0.4
	c-0.1,0.1-0.3,0.2-0.5,0.2c-0.1,0-0.2,0-0.3-0.1c-0.1,0-0.2-0.1-0.3-0.2c-0.1-0.1-0.2-0.2-0.2-0.3c-0.1-0.1-0.2-0.3-0.3-0.4
	L65.1,46.9z M63.7,44.9h0.8c0.1,0,0.3,0,0.4,0c0.1,0,0.3,0,0.4-0.1c0.1,0,0.2-0.1,0.3-0.2c0.1-0.1,0.1-0.2,0.1-0.4
	c0-0.2,0-0.3-0.1-0.4c-0.1-0.1-0.2-0.2-0.3-0.2c-0.1,0-0.2-0.1-0.4-0.1c-0.1,0-0.3,0-0.4,0h-0.9V44.9z"/>
<path class="st1" d="M79.4,45.9c0,0.1,0,0.3,0,0.5c0,0.2,0.1,0.3,0.1,0.5c0.1,0.1,0.2,0.3,0.3,0.4c0.2,0.1,0.4,0.1,0.7,0.1
	c0.3,0,0.5,0,0.6-0.1c0.1-0.1,0.3-0.2,0.3-0.4c0.1-0.1,0.1-0.3,0.1-0.5c0-0.2,0-0.3,0-0.5v-2.3c0-0.3,0-0.5,0-0.7
	c0-0.2,0.1-0.3,0.2-0.4c0.1-0.1,0.1-0.1,0.2-0.2c0.1-0.1,0.2-0.1,0.3-0.1c0.1,0,0.2,0,0.3,0.1c0.1,0,0.2,0.1,0.3,0.2
	c0.1,0.1,0.2,0.2,0.2,0.4c0,0.2,0,0.4,0,0.7v2.2c0,0.4,0,0.7-0.1,1c0,0.3-0.1,0.6-0.3,0.8c-0.1,0.2-0.3,0.4-0.4,0.5
	c-0.2,0.1-0.3,0.2-0.5,0.3c-0.2,0.1-0.4,0.1-0.6,0.2c-0.2,0-0.4,0-0.6,0c-0.2,0-0.4,0-0.7,0c-0.2,0-0.5-0.1-0.7-0.1
	c-0.2-0.1-0.4-0.2-0.6-0.3c-0.2-0.1-0.4-0.3-0.5-0.6c-0.1-0.1-0.1-0.3-0.2-0.5c0-0.2-0.1-0.3-0.1-0.5c0-0.2,0-0.3,0-0.4
	c0-0.1,0-0.2,0-0.3v-2.2c0-0.3,0-0.5,0-0.7c0-0.2,0.1-0.3,0.2-0.4c0.1-0.1,0.1-0.1,0.2-0.2c0.1-0.1,0.2-0.1,0.3-0.1
	c0.2,0,0.4,0.1,0.6,0.2c0.1,0.1,0.2,0.2,0.2,0.4c0,0.2,0,0.4,0,0.7V45.9z"/>
<path class="st1" d="M95.4,48.4c-0.2,0-0.3,0-0.4,0c-0.1,0-0.2,0-0.3,0c-0.1,0-0.1,0-0.2-0.1c-0.1,0-0.1-0.1-0.2-0.1
	c-0.1-0.1-0.1-0.1-0.1-0.2c0-0.1-0.1-0.1-0.1-0.2c0-0.1,0-0.2,0-0.3c0-0.1,0-0.3,0-0.4v-3.4c0-0.2,0-0.3,0-0.4c0-0.1,0-0.2,0-0.3
	c0-0.1,0-0.1,0.1-0.2c0-0.1,0.1-0.1,0.1-0.2c0.1-0.1,0.1-0.1,0.2-0.1c0.1,0,0.1-0.1,0.2-0.1c0.1,0,0.2,0,0.3,0c0.1,0,0.2,0,0.4,0H97
	c0.3,0,0.6,0,0.8,0c0.2,0,0.4,0.1,0.7,0.2c0.2,0.1,0.4,0.3,0.5,0.5c0.1,0.2,0.2,0.5,0.2,0.8c0,0.2,0,0.4-0.1,0.5
	c-0.1,0.2-0.2,0.3-0.3,0.4c-0.1,0.1-0.2,0.2-0.3,0.2c-0.1,0-0.2,0.1-0.2,0.1c0.1,0,0.2,0,0.3,0.1c0.1,0.1,0.3,0.1,0.4,0.2
	c0.1,0.1,0.2,0.3,0.3,0.4c0.1,0.2,0.1,0.4,0.1,0.7c0,0.4-0.1,0.7-0.3,1c-0.2,0.3-0.4,0.5-0.8,0.6c-0.1,0-0.2,0.1-0.4,0.1
	c-0.1,0-0.3,0-0.4,0c-0.1,0-0.3,0-0.4,0h-0.4H95.4z M95.7,44.8h0.8h0.1c0.1,0,0.1,0,0.2,0c0.1,0,0.2,0,0.2,0c0.1,0,0.1,0,0.2,0
	c0.2-0.1,0.3-0.1,0.3-0.3c0.1-0.1,0.1-0.2,0.1-0.3c0-0.2,0-0.3-0.1-0.4c-0.1-0.1-0.2-0.1-0.3-0.2c-0.1,0-0.2-0.1-0.4-0.1
	c-0.1,0-0.3,0-0.5,0h-0.8V44.8z M95.7,47.3h1c0.1,0,0.2,0,0.4,0c0.1,0,0.3,0,0.4-0.1c0.1,0,0.2-0.1,0.3-0.2c0.1-0.1,0.1-0.2,0.1-0.4
	c0-0.2,0-0.3-0.1-0.4c-0.1-0.1-0.2-0.2-0.3-0.2c-0.1,0-0.3-0.1-0.4-0.1c-0.1,0-0.3,0-0.4,0h-1V47.3z"/>
</svg>
