<?xml version="1.0" encoding="utf-8"?>
<!-- Generator: Adobe Illustrator 24.0.1, SVG Export Plug-In . SVG Version: 6.00 Build 0)  -->
<svg version="1.1" id="Layer_1" xmlns="http://www.w3.org/2000/svg" xmlns:xlink="http://www.w3.org/1999/xlink" x="0px" y="0px"
	 viewBox="0 0 217.3 107.5" style="enable-background:new 0 0 217.3 107.5;" xml:space="preserve">
<style type="text/css">
	.st0{fill:#D91E3E;}
	.st1{fill:#FFFFFF;}
</style>
<path class="st0" d="M20.4,74.6c-3.5,0-6.9-0.5-10.1-1.4c-3.2-0.9-5.8-2.1-7.8-3.6L6,61.9c1.9,1.3,4.1,2.4,6.7,3.3
	c2.6,0.8,5.2,1.3,7.8,1.3c2,0,3.6-0.2,4.9-0.6c1.3-0.4,2.1-0.9,2.7-1.7c0.6-0.7,0.9-1.5,0.9-2.4c0-1.1-0.5-2.1-1.4-2.8
	c-0.9-0.7-2.1-1.2-3.7-1.7c-1.5-0.4-3.2-0.8-5-1.2c-1.8-0.4-3.7-0.9-5.4-1.5c-1.8-0.6-3.5-1.3-5-2.2c-1.5-0.9-2.7-2.1-3.7-3.6
	c-0.9-1.5-1.4-3.4-1.4-5.7c0-2.5,0.7-4.8,2-6.8c1.4-2.1,3.4-3.7,6.2-4.9c2.8-1.2,6.2-1.8,10.3-1.8c2.8,0,5.5,0.3,8.2,1
	c2.7,0.6,5,1.6,7.1,2.9l-3.1,7.7c-2-1.1-4.1-2-6.2-2.6c-2-0.6-4.1-0.8-6-0.8c-1.9,0-3.6,0.2-4.8,0.7c-1.3,0.5-2.1,1-2.7,1.8
	c-0.5,0.7-0.8,1.6-0.8,2.5c0,1.1,0.5,2,1.4,2.7c0.9,0.7,2.1,1.2,3.7,1.7c1.5,0.4,3.2,0.8,5,1.2c1.8,0.4,3.7,0.9,5.4,1.5
	c1.8,0.6,3.5,1.2,5,2.2c1.5,0.9,2.7,2.1,3.7,3.6c0.9,1.5,1.4,3.4,1.4,5.7c0,2.4-0.7,4.7-2.1,6.7c-1.4,2-3.5,3.7-6.2,4.9
	c-2.7,1.2-5.6,1.6-9.8,1.6H20.4z"/>
<polygon class="st0" points="53.2,65.7 53.2,55.6 73.6,55.6 73.6,47.8 53.2,47.8 53.2,38.3 76.4,38.3 76.4,30.2 43.1,30.2 
	43.1,73.8 77.1,73.8 77.1,65.7 "/>
<path class="st0" d="M103.1,74.6c-3.5,0-6.7-0.6-9.6-1.7c-2.9-1.1-5.5-2.7-7.6-4.7c-2.1-2-3.8-4.4-5-7.2c-1.2-2.8-1.8-5.7-1.8-9
	c0-3.3,0.6-6.2,1.8-9c1.2-2.8,2.9-5.1,5.1-7.2c2.2-2,4.7-3.6,7.6-4.7c2.9-1.1,6.1-1.7,9.5-1.7c3.4,0,6.6,0.6,9.6,1.7
	c2.9,1.1,5.4,2.7,7.6,4.7c2.1,2,3.8,4.4,5.1,7.1c1.3,2.7,1.8,5.7,1.8,9c0,3.3-0.6,6.2-1.8,9c-1.2,2.8-2.9,5.1-5.1,7.2
	c-2.1,2-4.7,3.6-7.6,4.7c-2.9,1.1-5.8,1.7-9.2,1.7H103.1z M103.4,66c2,0,3.4-0.4,5.1-1c1.7-0.7,3.1-1.6,4.3-2.9
	c1.3-1.2,2.2-2.7,2.9-4.4c0.7-1.7,1-3.6,1-5.7c0-2.1-0.4-3.9-1-5.7c-0.7-1.7-1.7-3.2-2.9-4.4c-1.3-1.2-2.7-2.2-4.3-2.9
	c-1.7-0.7-3.5-1-5.4-1c-1.9,0-3.8,0.3-5.4,1c-1.7,0.7-3.1,1.6-4.3,2.9c-1.3,1.2-2.2,2.7-2.9,4.4c-0.7,1.7-1,3.6-1,5.7
	c0,2.1,0.4,3.9,1,5.7c0.7,1.7,1.7,3.2,2.9,4.5c1.3,1.2,2.7,2.2,4.3,2.9c1.7,0.7,3.5,1,5.4,1H103.4z"/>
<path class="st1" d="M173.7,73.3c-2.7,0-5.1-0.5-7-1.4c-2-0.9-3.5-2.4-4.6-4.4c-1.1-2-1.6-4.4-1.6-7.3V41.8h3.5v18
	c0,3.5,0.4,6.2,2.3,8c1.8,1.8,4.4,2.7,7.7,2.7c2.4,0,4.4-0.5,6.2-1.5c1.7-1,3.1-3.3,4-5.1c0.9-1.8,0.9-3.9,0.9-6.4v-7.4v-8.3h3.5
	v31.6h-3.4v-9l0.4,1c-0.9,2.4-2,4.3-4.2,5.8C179.1,72.5,176.7,73.3,173.7,73.3L173.7,73.3z"/>
<path class="st1" d="M193.7,73.3V41.7h3.5v31.6H193.7z"/>
<path class="st1" d="M202.5,73.3V29.5h3.5v43.9H202.5z"/>
<path class="st1" d="M211.3,73.3V29.5h3.5v43.9H211.3z"/>
<path class="st1" d="M154.8,75.2c-2.4,2.8-5.2,4.2-8.7,4.2c-1.2,0-2.5-0.3-3.7-0.7c-1.3-0.5-2.6-1.2-3.9-2.3
	c-0.9-0.7-1.9-1.7-2.8-2.6c1.8-0.3,3.5-0.7,5-1.3c2.8-1.1,5.2-2.6,7.3-4.6c2-2,3.7-4.3,4.8-7c1.2-2.7,1.7-5.6,1.7-8.8
	c0-3.2-0.6-6.1-1.7-8.8c-1.2-2.7-2.8-5-4.8-7c-2-2-4.4-3.5-7.3-4.6c-2.8-1.1-5.8-1.7-9-1.7c-2.3,0-4.4,0.4-6.4,0.9
	c0.1,0.1,0.2,0.1,0.2,0.2c0.7,0.7,1.3,1.5,2,2.3c1.4-0.3,2.8-0.4,4.3-0.4c2.8,0,5.4,0.5,7.8,1.5c2.4,0.9,4.4,2.3,6.2,4
	c1.8,1.8,3.1,3.8,4.1,6.1c1,2.3,1.5,4.9,1.5,7.6c0,2.7-0.5,5.3-1.5,7.6c-1,2.3-2.4,4.4-4.1,6.1c-1.8,1.8-3.8,3.1-6.2,4
	c-2.4,0.9-5,1.5-7.8,1.5c-1.5,0-2.9-0.2-4.2-0.4c-0.7,0.8-1.3,1.6-2,2.3c0,0-0.1,0.1-0.2,0.1c2,0.5,4.1,0.9,6.3,0.9
	c1.2,1.2,2.4,2.3,3.5,3.3c1.3,1.1,2.5,2,3.8,2.7c1.3,0.7,2.5,1.2,3.7,1.5c1.2,0.3,2.4,0.5,3.7,0.5c4.2,0,7.7-1.7,10.4-4.9
	L154.8,75.2L154.8,75.2z"/>
<circle class="st1" cx="195.5" cy="32.1" r="2.6"/>
</svg>
