<?xml version="1.0" encoding="utf-8"?>
<!-- Generator: Adobe Illustrator 24.0.1, SVG Export Plug-In . SVG Version: 6.00 Build 0)  -->
<svg version="1.1" id="Layer_1" xmlns="http://www.w3.org/2000/svg" xmlns:xlink="http://www.w3.org/1999/xlink" x="0px" y="0px"
	 viewBox="0 0 1562.5 2500" style="enable-background:new 0 0 1562.5 2500;" xml:space="preserve">
<style type="text/css">
	.st0{fill-rule:evenodd;clip-rule:evenodd;fill:#CC2229;}
</style>
<g>
	<path class="st0" d="M578.4,1970.5h-57.1v72.9h181.1v74.1h-282v-340.3h267.4v71.7H521.3v51.1h155.6v70.5H578.4z M1026.8,2446.9
		H1508V54.1H53.4v2392.8H1026.8L1026.8,2446.9z M1026.8,2349.7h384V151.3H150.6v2198.4H1026.8z M1026.8,378.6h143.4v77.8h-106.9
		v258.9H956.4V456.3H849.4v-77.8L1026.8,378.6L1026.8,378.6z M1026.8,844h141v75.3h-192v57.1h151.9v69.3H975.8v138.5H871.3V844
		L1026.8,844L1026.8,844z M1026.8,1417.6l51,93.6v-196.9h89.9v334.2h-105.7l-35.3-64.4l-72.9-130v194.4H864v-334.2h106.9
		L1026.8,1417.6z M1026.8,2037.4h139.7v80.2H885.9v-340.3h96v260H1026.8z M578.4,1597.5h-63.2l-10.9,51.1H402.2l115.5-331.8h114.2
		l122.7,331.8H646.5l-14.6-51.1L578.4,1597.5L578.4,1597.5z M578.4,1184.3h-158V844h267.4v71.7H521.3v51h155.6v69.3H521.3v72.9
		h181.1v75.3H578.4z M578.4,728.5h-4.9C497,731,441.1,703,401,655.6c25.5-15.8,51-32.8,75.3-48.6c25.5,24.3,55.9,45,98.4,45h3.6
		c30.4-1.2,48.6-12.1,51-32.8c1.2-21.9-17-29.2-51-32.8c-4.9,0-8.5-1.2-12.2-1.2C469,576.6,418,537.8,422.8,478.2
		c6.1-72.9,59.6-110.6,155.6-111.8h1.2c64.4,0,113,19.4,151.9,55.9c-20.7,17-42.5,34-63.2,52.3c-21.9-17-43.7-26.7-79-28h-10.9
		c-64.4,1.2-58.3,37.7-25.5,45c8.5,1.2,17,3.7,25.5,4.9c13.4,2.4,28,4.9,41.3,6.1c75.3,9.7,115.4,38.9,114.2,98.4
		C731.5,688.4,670.8,724.9,578.4,728.5L578.4,728.5z M578.4,1527h-40.1l38.9-110.6h1.2l38.9,110.6H578.4L578.4,1527z"/>
</g>
</svg>
