<svg id="Layer_7" data-name="Layer 7" xmlns="http://www.w3.org/2000/svg" viewBox="0 0 140 140"><defs><style>.cls-1{fill:#fff;}</style></defs><title>Artboard 8</title><path class="cls-1" d="M104.17,87.65a12.74,12.74,0,0,0-9.24-4.24,13.18,13.18,0,0,0-9.35,4.21l-8.64,8.61c-.71-.38-1.42-.74-2.11-1.09-1-.49-1.91-1-2.7-1.45A93.87,93.87,0,0,1,49.62,73.18a55.79,55.79,0,0,1-7.38-11.64c2.24-2.06,4.32-4.19,6.34-6.24.77-.76,1.54-1.56,2.3-2.32,5.74-5.74,5.74-13.18,0-18.92l-7.46-7.47c-.85-.85-1.73-1.72-2.55-2.6-1.64-1.69-3.36-3.44-5.14-5.08a12.91,12.91,0,0,0-9.16-4,13.36,13.36,0,0,0-9.29,4l-.06.05L7.93,28.34A20,20,0,0,0,2,41.06c-.65,8,1.7,15.42,3.5,20.28,4.43,12,11,23,20.92,34.89a128.61,128.61,0,0,0,42.84,33.55c6.29,3,14.69,6.51,24.07,7.11.57,0,1.17.06,1.72.06a20.63,20.63,0,0,0,15.78-6.78c0-.06.08-.09.1-.14a65.06,65.06,0,0,1,4.79-5c1.18-1.12,2.38-2.3,3.55-3.53a13.62,13.62,0,0,0,4.13-9.46,13.16,13.16,0,0,0-4.21-9.38ZM114,116.44s0,0,0,0c-1.07,1.15-2.16,2.19-3.34,3.34a72.22,72.22,0,0,0-5.27,5.46,13.16,13.16,0,0,1-10.28,4.35c-.41,0-.85,0-1.26,0-8.12-.52-15.67-3.69-21.33-6.39A121.71,121.71,0,0,1,32.12,91.56C22.8,80.32,16.57,69.93,12.44,58.77,9.89,52,9,46.66,9.37,41.66a12.59,12.59,0,0,1,3.78-8.12l9.32-9.33a6.25,6.25,0,0,1,4.16-1.94,5.84,5.84,0,0,1,4,1.92l.08.08c1.67,1.56,3.26,3.17,4.92,4.89.85.88,1.73,1.75,2.6,2.65l7.47,7.47c2.89,2.9,2.89,5.58,0,8.47-.8.8-1.56,1.59-2.36,2.36-2.29,2.35-4.48,4.54-6.86,6.67,0,0-.11.08-.14.13a5.59,5.59,0,0,0-1.42,6.21l.08.25a60.25,60.25,0,0,0,8.84,14.41l0,0A100.5,100.5,0,0,0,68.13,99.9a37.41,37.41,0,0,0,3.37,1.83c1,.49,1.91,1,2.7,1.45.11,0,.22.13.33.19a6,6,0,0,0,2.71.68,5.84,5.84,0,0,0,4.15-1.88l9.36-9.35a6.18,6.18,0,0,1,4.12-2.06,5.57,5.57,0,0,1,3.94,2l.06.06,15.06,15.06C116.75,110.67,116.75,113.54,114,116.44Z"/><path class="cls-1" d="M71.8,38.21a35.2,35.2,0,0,1,28.65,28.66,3.67,3.67,0,0,0,3.64,3.06,4.48,4.48,0,0,0,.63-.06,3.68,3.68,0,0,0,3-4.26A42.55,42.55,0,0,0,73.08,30.94a3.7,3.7,0,0,0-4.26,3A3.64,3.64,0,0,0,71.8,38.21Z"/><path class="cls-1" d="M131.19,64.54A70.09,70.09,0,0,0,74.09,7.45a3.68,3.68,0,0,0-1.2,7.27,62.56,62.56,0,0,1,51,51,3.67,3.67,0,0,0,3.64,3.06,4.48,4.48,0,0,0,.63-.06A3.63,3.63,0,0,0,131.19,64.54Z"/></svg>