<svg id="Layer_7" data-name="Layer 7" xmlns="http://www.w3.org/2000/svg" viewBox="0 0 140 140"><defs><style>.cls-1{fill:#fff;fill-rule:evenodd;}</style></defs><title>Artboard 4</title><path id="Path-3" class="cls-1" d="M12.64,67.3C44,53.56,64.91,44.68,75.46,40.33c29.82-12.4,36-14.58,40-14.74a7.56,7.56,0,0,1,4.19,1.17,4.75,4.75,0,0,1,1.5,2.85,15.75,15.75,0,0,1,.17,4.18c-1.67,16.92-8.54,58.3-12.23,77.23-1.51,8-4.52,10.72-7.37,11-6.2.51-11.05-4.18-17.09-8-9.38-6.19-14.74-10-24-16.08-10.55-7-3.69-10.89,2.35-17.08,1.5-1.68,29.14-26.64,29.65-29,0-.34.16-1.35-.51-1.85A2.52,2.52,0,0,0,90,49.87C89,50,74,60.09,44.64,79.86c-4.36,3-8.21,4.36-11.73,4.36-3.85,0-11.22-2.18-16.75-4C9.46,78,4.1,76.85,4.6,73.16,4.94,71.32,7.62,69.31,12.64,67.3Z"/></svg>