<svg id="Layer_7" data-name="Layer 7" xmlns="http://www.w3.org/2000/svg" viewBox="0 0 140 140"><defs><style>.cls-1{fill:#fff;}</style></defs><title>Artboard 5</title><path class="cls-1" d="M85.15,74.19c-1.26.36-2.33,2.69-3.77,4.66s-2,2.87-3.4,2.87-7.71-2.51-13.63-7.88a28.47,28.47,0,0,1-7.7-10.76s1.07-1.25,2.51-3.23a10.21,10.21,0,0,0,2.33-4.3c0-.89-5-13.62-6.28-14.16a21.66,21.66,0,0,0-5.91,0,16.81,16.81,0,0,0-7,10.94c-.9,7,3.4,14.16,3.4,14.16A91.48,91.48,0,0,0,61.13,84.05a53.88,53.88,0,0,0,17.2,9.14,20.39,20.39,0,0,0,11.48,1.08,16.46,16.46,0,0,0,8.6-5.74,18,18,0,0,0,1.08-3.94,10.76,10.76,0,0,0,0-3.58C99.31,79.75,86.4,73.84,85.15,74.19Z"/><path class="cls-1" d="M71.76,10.68A56.41,56.41,0,0,0,24.09,97.33L16,125.94l30.28-8.43A56.45,56.45,0,1,0,71.76,10.68Zm0,104a47.15,47.15,0,0,1-23.84-6.44h0L42.4,110l-5.33,1.69h0l-8.87,2.82,5.58-18.82h0a47.49,47.49,0,1,1,38,19Z"/></svg>