<svg id="Layer_3" data-name="Layer 3" xmlns="http://www.w3.org/2000/svg" viewBox="0 0 140 140"><defs><style>.cls-1{fill:#450637;}.cls-2{fill:#cb74af;}</style></defs><title>Artboard 3</title><path class="cls-1" d="M29.59,9h80.82a22.15,22.15,0,0,1,22.17,22.16v77.7A22.15,22.15,0,0,1,110.41,131H29.59A22.15,22.15,0,0,1,7.42,108.85V31.15A22.15,22.15,0,0,1,29.59,9Z"/><path class="cls-2" d="M73.18,45.43,57.71,71,74.21,98a.84.84,0,0,1,.11.61c-.06.21-.26.06-.57.11H61.94c-.82,0-1.39,0-1.75-.57C59.11,96,58,93.9,56.89,91.74s-2.27-4.28-3.51-6.5-2.47-4.44-3.71-6.7h-.1c-1.09,2.21-2.27,4.43-3.46,6.65s-2.37,4.43-3.5,6.6-2.38,4.38-3.56,6.49c-.21.52-.62.57-1.19.57H26.52c-.21,0-.36.1-.36-.15a.73.73,0,0,1,.1-.57l16-26.3L26.67,45.38c-.15-.2-.2-.41-.1-.51a.59.59,0,0,1,.52-.21h11.7a3.05,3.05,0,0,1,.72.1,1.54,1.54,0,0,1,.52.47c1,2.21,2.11,4.43,3.3,6.65s2.42,4.38,3.71,6.55,2.37,4.33,3.45,6.55h.11c1.08-2.27,2.21-4.49,3.35-6.66s2.32-4.33,3.51-6.49,2.32-4.39,3.45-6.5a.81.81,0,0,1,.31-.51,1,1,0,0,1,.67-.11H72.77a.49.49,0,0,1,.57.36s-.06.26-.16.36ZM97,99.83a25.61,25.61,0,0,1-11.08-2.32,18,18,0,0,1-7.79-7A22.32,22.32,0,0,1,75.3,78.74a21.08,21.08,0,0,1,2.83-10.88,21.47,21.47,0,0,1,8.2-8,26.38,26.38,0,0,1,13-3,9.64,9.64,0,0,1,1.09,0c.46,0,1,0,1.6.11V40.74c0-.36.15-.57.51-.57H113a.46.46,0,0,1,.51.37V89.72c0,.93,0,2,.11,3.1s.15,2.11.2,3a.82.82,0,0,1-.51.82,39.3,39.3,0,0,1-8.41,2.48,45.88,45.88,0,0,1-7.94.72Zm5.06-10.31V66.83c-.47-.1-.93-.2-1.4-.26s-1.13-.1-1.7-.1a12.65,12.65,0,0,0-5.82,1.34,11.61,11.61,0,0,0-4.39,3.82,11.45,11.45,0,0,0-1.7,6.55,14.42,14.42,0,0,0,.88,5.31,10,10,0,0,0,2.32,3.66,9,9,0,0,0,3.5,2.06,13.67,13.67,0,0,0,4.28.67c.78,0,1.5,0,2.17-.1a4.67,4.67,0,0,0,1.86-.26Z"/></svg>