<svg id="Layer_1" data-name="Layer 1" xmlns="http://www.w3.org/2000/svg" viewBox="0 0 140 140"><defs><style>.cls-1{fill:#fbb416;}.cls-2{fill:#48bbeb;}.cls-3{fill:#ee3362;}.cls-4{fill:#ba1f46;}</style></defs><title>Artboard 3</title><path class="cls-1" d="M62.77,18.33,16.44,37.53a3.15,3.15,0,0,0,0,5.81L63,61.87a17.87,17.87,0,0,0,12.72,0l46.66-18.53a3.13,3.13,0,0,0,0-5.81L76.05,18.33a17.18,17.18,0,0,0-13.28,0"/><path class="cls-2" d="M73.59,71.91v46.21A3.08,3.08,0,0,0,77.84,121l52-20.1a2.92,2.92,0,0,0,1.9-2.9V51.82a3.06,3.06,0,0,0-4.24-2.9L75.49,69a2.93,2.93,0,0,0-1.9,2.9"/><path class="cls-3" d="M7.18,51.93V95.35a3.27,3.27,0,0,0,4.69,2.79L44.35,82.52l1.56-.79L8.18,49.81A3,3,0,0,0,7.18,51.93Z"/><path class="cls-4" d="M61.2,68.67,11.75,49A3.43,3.43,0,0,0,9,49.25c-.22.11-.55.34-.89.56L45.91,81.73l15.41-7.36A3.1,3.1,0,0,0,61.2,68.67Z"/></svg>