<svg id="Layer_2" data-name="Layer 2" xmlns="http://www.w3.org/2000/svg" viewBox="0 0 140 140"><defs><style>.cls-1{fill:#27110e;}.cls-2{fill:#ef4629;}</style></defs><title>Artboard 2</title><path class="cls-1" d="M30.09,9.47h80.82a22.15,22.15,0,0,1,22.17,22.16v77.7a22.14,22.14,0,0,1-22.17,22.16H30.09A22.14,22.14,0,0,1,7.92,109.33V31.63A22.15,22.15,0,0,1,30.09,9.47Z"/><path class="cls-2" d="M111.56,99.57v-32c0-9.66-14.75-16.14-33.23-8.6V99.57H89.27V64.64c5.73-1.91,12.42-1.06,12.42,3.82V99.57ZM56.68,40.43H44.79L28.44,98.93l9.13.53L42,83H59.54L63.9,99.46H74.41ZM44.36,73.77l6.16-24.53L57,73.77Z"/></svg>