<svg id="Layer_3" data-name="Layer 3" xmlns="http://www.w3.org/2000/svg" viewBox="0 0 140 140"><defs><style>.cls-1{fill:#75bb43;}.cls-1,.cls-2,.cls-3{fill-rule:evenodd;}.cls-2{fill:#089bd8;}.cls-3{fill:#eb2385;}</style></defs><title>Artboard 1</title><path class="cls-1" d="M114,16.69a5.43,5.43,0,0,0-5.07-3H100.1c-2.54,0-4.48,1.05-5.38,2.84l-13,19L93.08,51l19.86-28.38a5.64,5.64,0,0,0,1-6"/><path class="cls-2" d="M45.44,16.39h0a6.55,6.55,0,0,0-5.52-2.69H31.41a5.66,5.66,0,0,0-5.08,2.84,5.83,5.83,0,0,0,.6,6l31.8,44.2L22.15,117.64a5.21,5.21,0,0,0-.45,5.82,5.27,5.27,0,0,0,4.93,2.84h8.81a6,6,0,0,0,5.22-3L81.58,66.86Z"/><path class="cls-3" d="M118.31,119.13,96.21,88.82l-9.7,13.43L104,125.7l.45.15a5.93,5.93,0,0,0,2.24.45h7.46a4.63,4.63,0,0,0,4.18-2.24,4.82,4.82,0,0,0,0-4.93"/></svg>