<svg id="Layer_3" data-name="Layer 3" xmlns="http://www.w3.org/2000/svg" viewBox="0 0 140 140"><defs><style>.cls-1{fill:#ae1f5a;}</style></defs><title>Artboard 4</title><path class="cls-1" d="M82.86,90.24l32-20.64c9-6.39,15.44-11.7,11.42-18.71-3.45-5.94-10.8-4.7-23.3-.74-11.53,3.68-26.8,9.05-36.18,12.5a1,1,0,0,1-.91-1.81c11.31-7.63,24.26-16.91,31-22.9,4.35-3.85,4.92-8.54,2.6-11.37-2-2.43-4.58-4.92-16.91-.9-8.88,2.94-20.19,7.69-30.36,11.82a1,1,0,0,1-1-1.7c2.43-2,7.18-5.66,9.78-8.43C65.11,23,65.17,18.77,63.07,16c-1.07-1.47-3.5-3.9-10.34-3.34a112.49,112.49,0,0,0-21,4.07c-6.45,1.81-5.54,11.82,3.62,10.18,2.32-.39,5.65-1.07,8.08-1.58a1,1,0,0,1,.85,1.75c-6.1,4.75-13.34,10.58-16.68,13.57-4.3,3.85-6.11,8-3.22,11.82s8.88,2.71,15.94.68c4.36-1.24,11.14-3.56,16-5.2a1,1,0,0,1,.85,1.81c-8.94,5.65-24.21,15.09-32,20.64-9,6.39-15.44,11.7-11.42,18.71,3.45,5.94,10.8,4.7,23.3.74,11.53-3.68,26.8-9,36.18-12.5a1,1,0,0,1,.91,1.81c-11.31,7.63-24.26,16.91-31,22.9-4.35,3.85-4.92,8.54-2.6,11.37,2,2.43,4.58,4.92,16.91.9,8.88-2.94,20.19-7.69,30.36-11.82a1,1,0,0,1,1,1.7c-2.43,2-7.18,5.66-9.78,8.43-4.13,4.35-4.19,8.59-2.09,11.36,1.07,1.47,3.5,3.9,10.34,3.34a112.49,112.49,0,0,0,21-4.07c6.45-1.81,5.54-11.82-3.62-10.18-2.32.39-5.65,1.07-8.08,1.58a1,1,0,0,1-.85-1.75c6.1-4.81,13.29-10.63,16.62-13.63,4.3-3.84,6.11-8,3.22-11.82s-8.87-2.71-15.94-.68C95.3,88,88.52,90.36,83.66,92c-1,.45-1.81-1.13-.8-1.76Z"/></svg>