<?xml version="1.0" encoding="utf-8"?>
<!-- Generator: Adobe Illustrator 24.0.1, SVG Export Plug-In . SVG Version: 6.00 Build 0)  -->
<svg version="1.1" xmlns="http://www.w3.org/2000/svg" xmlns:xlink="http://www.w3.org/1999/xlink" x="0px" y="0px"
	 viewBox="0 0 823 300" style="enable-background:new 0 0 823 300;" xml:space="preserve">
<style type="text/css">
	.st0{fill:#DE3651;}
	.st1{fill:#DE3752;}
	.st2{fill:#FCFAFA;}
</style>
<g id="btx_xA0_Image_1_">
	<g>
		<path class="st0" d="M100.9,46.3c0,40.3-0.2,80.5,0,120.8c0.1,18.6,15.6,34.4,34.2,35.4c19,1,36.2-12.9,38.5-31.3
			c2.5-19.9-10-37.8-29.1-41.5c-6.1-1.2-12.1-1-17.9,1.1c-3.1,1.1-4.6,0.7-6.1-3.1c-2.3-5.6-5.3-10.9-8.7-15.9
			c-2.3-3.4-1.7-4.7,1.1-6.4c15.1-9.2,31.3-9.9,47.8-5.2c31.4,8.9,50.9,37.4,49.3,71.1c-1.4,29.5-25.1,55.9-55.5,61.8
			c-0.9,0.2-7.9,1-14.3,1H140c-6.8-0.2-11.9-1.4-13.5-1.8c-10.3-2.6-18.4-8.5-26-17.7c0,5.5-0.2,9.7,0.1,13.8c0.2,3-0.9,3.9-3.9,3.9
			c-10.4-0.2-20.9-0.1-31.3-0.1c0-60.5,0-120.9-0.1-181.4c0-3.9,1.1-4.5,4.6-4.4C80.3,46.5,90.6,46.3,100.9,46.3z"/>
		<path class="st0" d="M463.9,232c-14.3,0-27.7-0.1-41.1,0.1c-2.7,0-3.6-1.9-4.8-3.5c-24.9-34.1-49.8-68.2-74.6-102.3
			c-6.3-8.7-12.6-17.4-19.4-26.9c14.3,0,27.6,0.1,41,0c2.7,0,3.1,2.1,4.1,3.6c8,13.5,16,27,24,40.5c2.1-0.4,2.3-2.2,3.1-3.5
			c7.3-12,14.6-24,21.6-36.2c2-3.5,4.3-4.5,8.1-4.5c12.1,0.2,24.2,0.1,36.4,0.1c0.5,2.3-1.3,3.3-2.3,4.7
			c-14,19.5-28.1,39.1-42.3,58.5c-2,2.7-1.9,4.4,0.1,7.1c14.3,19.1,28.5,38.4,42.7,57.6C461.5,228.6,462.4,229.9,463.9,232z"/>
		<path class="st1" d="M275.6,127.5c0,18.8,0,37.6,0,56.5c0,11,5.6,16.6,16.6,16.6c6.7,0,13.4,0.1,20.1,0c2.5,0,3.9,0.4,3.8,3.4
			c-0.2,8.3-0.1,16.7-0.1,25c0,1.8-0.2,3.2-2.6,3.1c-10.8-0.4-21.6,1-32.4-0.9c-23.1-4-40.3-23.8-40.8-47.3
			c-0.2-12.1-0.3-24.2,0-36.3c0.1-4.2-1.3-5.4-5.3-5c-3.7,0.3-7.5,0-11.3,0.1c-2.1,0.1-2.9-0.7-2.8-2.9c0.1-7.9,0.1-15.7,0-23.6
			c-0.1-2.8,1.2-3.2,3.5-3.2c3.9,0.1,7.9-0.2,11.8,0.1c3.4,0.3,4.1-1.1,4-4.2c-0.1-13.3,0.1-26.5-0.1-39.8c-0.1-3.4,0.9-4.4,4.4-4.3
			c9,0.2,18,0.2,27,0c3.4-0.1,4.1,1.1,4,4.2C275.5,88.6,275.6,108,275.6,127.5z"/>
		<path class="st1" d="M323.7,232c11.8-16.1,22.9-31.2,34-46.4c1.3-1.7,2.3-1.7,4.1-0.9c9,4.2,18,8.5,27.1,12.5
			c2.6,1.1,2.1,2.2,0.8,3.9c-7.1,9.6-14.2,19.2-21.2,28.8c-0.9,1.3-1.9,2-3.6,2C351.5,232,338.1,232,323.7,232z"/>
		<path class="st1" d="M279.8,113.1c11.7,0,22.3,0.1,32.9-0.1c2.7,0,3.3,0.9,3.3,3.4c-0.1,7.7-0.1,15.4,0,23.1
			c0,2.3-0.7,3.2-3.1,3.1c-4.7-0.1-9.5,0-14.2,0c-1.3,0-2.5,0-3.3-1.5C290.4,132,285.3,122.9,279.8,113.1z"/>
	</g>
</g>
<g id="Fashion_x0D_Outlet">
	<g>
		<path class="st2" d="M510,105.2v15.5h24.5v8H510v19.4h-9.4V97.3h37.1v7.9H510z"/>
		<path class="st2" d="M577.1,125.4v22.7h-8.6v-4.7c-2.2,3.3-6.4,5.2-12.2,5.2c-8.8,0-14.4-4.9-14.4-11.6c0-6.5,4.4-11.5,16.1-11.5
			h10v-0.6c0-5.3-3.2-8.4-9.6-8.4c-4.4,0-8.8,1.5-11.8,3.8l-3.6-6.6c4.1-3.2,10.2-4.8,16.4-4.8C570.6,108.9,577.1,114.2,577.1,125.4
			z M568,136v-4.5h-9.4c-6.2,0-7.8,2.3-7.8,5.2c0,3.3,2.8,5.4,7.4,5.4C562.6,142,566.5,140,568,136z"/>
		<path class="st2" d="M584.2,144.3l3.5-6.9c3.4,2.2,8.6,3.8,13.5,3.8c5.7,0,8.1-1.6,8.1-4.3c0-7.4-23.9-0.4-23.9-15.9
			c0-7.3,6.6-12.1,17-12.1c5.2,0,11,1.2,14.5,3.3l-3.5,6.9c-3.7-2.2-7.4-2.9-11.1-2.9c-5.5,0-8.1,1.8-8.1,4.4
			c0,7.8,23.9,0.9,23.9,16c0,7.3-6.7,12-17.6,12C594.2,148.6,587.7,146.7,584.2,144.3z"/>
		<path class="st2" d="M664.2,125.9v22.2h-9.1v-21c0-6.9-3.4-10.2-9.2-10.2c-6.5,0-10.8,3.9-10.8,11.7v19.6H626V94.3h9.1v19.6
			c3-3.2,7.5-4.9,12.9-4.9C657.3,108.9,664.2,114.2,664.2,125.9z"/>
		<path class="st2" d="M674.5,97.5c0-3,2.5-5.4,5.8-5.4s5.8,2.2,5.8,5.2c0,3.2-2.4,5.7-5.8,5.7C676.9,103,674.5,100.6,674.5,97.5z
			 M675.7,109.4h9.1v38.7h-9.1V109.4z"/>
		<path class="st2" d="M693.5,128.7c0-11.6,8.7-19.8,20.6-19.8c12,0,20.7,8.2,20.7,19.8s-8.6,19.9-20.7,19.9
			C702.2,148.6,693.5,140.3,693.5,128.7z M725.6,128.7c0-7.4-4.9-12.1-11.5-12.1c-6.5,0-11.5,4.7-11.5,12.1
			c0,7.4,4.9,12.1,11.5,12.1C720.7,140.8,725.6,136.1,725.6,128.7z"/>
		<path class="st2" d="M781.6,125.9v22.2h-9.1v-21c0-6.9-3.4-10.2-9.2-10.2c-6.5,0-10.8,3.9-10.8,11.7v19.6h-9.1v-38.7h8.6v5
			c3-3.6,7.7-5.4,13.3-5.4C774.7,108.9,781.6,114.2,781.6,125.9z"/>
		<path class="st2" d="M496.9,209.8c0-15,11.6-26.1,27.3-26.1s27.3,11,27.3,26.1s-11.6,26.1-27.3,26.1S496.9,224.8,496.9,209.8z
			 M542.1,209.8c0-10.4-7.6-17.8-17.8-17.8c-10.2,0-17.8,7.5-17.8,17.8c0,10.4,7.6,17.8,17.8,17.8
			C534.5,227.6,542.1,220.2,542.1,209.8z"/>
		<path class="st2" d="M598.2,196.4v38.7h-8.6v-4.9c-2.9,3.6-7.5,5.4-12.5,5.4c-9.9,0-16.7-5.4-16.7-17.1v-22.1h9.1v20.9
			c0,7,3.3,10.4,9.1,10.4c6.3,0,10.6-3.9,10.6-11.7v-19.6H598.2z"/>
		<path class="st2" d="M633.4,233.1c-2.2,1.7-5.4,2.6-8.7,2.6c-8.5,0-13.3-4.5-13.3-13.1V204H605v-7.3h6.4v-8.9h9.1v8.9h10.4v7.3
			h-10.4v18.4c0,3.8,1.9,5.8,5.4,5.8c1.9,0,3.7-0.5,5.1-1.6L633.4,233.1z"/>
		<path class="st2" d="M640.9,181.3h9.1v53.8h-9.1V181.3z"/>
		<path class="st2" d="M698.1,218.7h-30.4c1.1,5.7,5.8,9.3,12.5,9.3c4.4,0,7.8-1.4,10.5-4.2l4.9,5.6c-3.5,4.1-8.9,6.3-15.6,6.3
			c-13,0-21.4-8.3-21.4-19.9s8.5-19.8,20-19.8c11.3,0,19.6,7.9,19.6,20C698.3,216.7,698.2,217.8,698.1,218.7z M667.7,212.7h22
			c-0.7-5.6-5-9.4-11-9.4C672.8,203.2,668.5,207,667.7,212.7z"/>
		<path class="st2" d="M730.3,233.1c-2.2,1.7-5.4,2.6-8.7,2.6c-8.5,0-13.3-4.5-13.3-13.1V204h-6.4v-7.3h6.4v-8.9h9.1v8.9h10.4v7.3
			h-10.4v18.4c0,3.8,1.9,5.8,5.4,5.8c1.9,0,3.7-0.5,5.1-1.6L730.3,233.1z"/>
	</g>
</g>
</svg>
