<svg id="Layer_6" data-name="Layer 6" xmlns="http://www.w3.org/2000/svg" viewBox="0 0 140 140"><defs><style>.cls-1{fill:#4d6bfd;}</style></defs><title>Artboard 5</title><path class="cls-1" d="M133.65,34.18c-1.36-.67-2,.6-2.75,1.24a7.28,7.28,0,0,0-.73.74c-2,2.14-4.32,3.53-7.36,3.36a14.32,14.32,0,0,0-11.59,4.56,10.52,10.52,0,0,0-6.69-8.31c-1.9-.84-3.8-1.68-5.12-3.5a13.83,13.83,0,0,1-1.64-4.14c-.29-.87-.59-1.74-1.57-1.89s-1.49.73-1.91,1.48A19.65,19.65,0,0,0,92,37.61a21.34,21.34,0,0,0,9.86,18.2,1.37,1.37,0,0,1,.69,1.74c-.43,1.51-1,3-1.43,4.47-.29,1-.73,1.17-1.75.75a29.34,29.34,0,0,1-9.31-6.33c-4.6-4.44-8.75-9.35-13.93-13.19-1.22-.9-2.43-1.74-3.69-2.53-5.29-5.15.69-9.37,2.08-9.86s.5-2.32-4.18-2.3-9,1.59-14.4,3.67a15.56,15.56,0,0,1-2.5.73A51.32,51.32,0,0,0,38,32.42,33.33,33.33,0,0,0,13.88,46.5c-7.12,9.81-8.8,21-6.75,32.61a49.91,49.91,0,0,0,18,30.35c10,8.22,21.43,12.25,34.52,11.48,7.94-.46,16.79-1.52,26.77-10,2.52,1.25,5.16,1.75,9.55,2.13a31,31,0,0,0,9.14-.69c4-.83,3.67-4.49,2.25-5.16-11.56-5.39-9-3.2-11.33-5,5.87-7,14.72-14.19,18.18-37.6a21.36,21.36,0,0,0,0-4.53c0-.91.19-1.28,1.24-1.38a22,22,0,0,0,8.28-2.55c7.49-4.1,10.5-10.82,11.22-18.88.11-1.23,0-2.51-1.32-3.15ZM68.41,106.73C57.21,97.92,51.78,95,49.54,95.15s-1.72,2.52-1.26,4.08a14.78,14.78,0,0,0,2,4,2,2,0,0,1-.6,3.24c-3.61,2.24-9.88-.75-10.18-.9a46.64,46.64,0,0,1-17.7-17.75,54.32,54.32,0,0,1-7-24.06c-.11-2.08.51-2.81,2.56-3.18a25.36,25.36,0,0,1,8.2-.21A51.44,51.44,0,0,1,54.91,75.23c4.66,4.62,8.18,10.14,11.81,15.52,3.85,5.73,8,11.18,13.29,15.65A43.5,43.5,0,0,0,84.79,110c-4.29.47-11.47.58-16.38-3.31Zm5.37-34.57a1.65,1.65,0,1,1,1.64,1.65,1.62,1.62,0,0,1-1.64-1.61v0Zm16.67,8.57a10.15,10.15,0,0,1-3.17.86A6.73,6.73,0,0,1,83,80.23c-1.46-1.23-2.5-1.92-3-4.08A9.52,9.52,0,0,1,80.13,73a3.51,3.51,0,0,0-1.27-3.9A5.55,5.55,0,0,0,75.16,68a3,3,0,0,1-1.36-.43,1.37,1.37,0,0,1-.61-1.93,6.65,6.65,0,0,1,1-1.12c1.91-1.09,4.11-.73,6.15.09,1.89.77,3.31,2.19,5.36,4.19a34,34,0,0,1,3.67,4.91,20.2,20.2,0,0,1,2.39,4.56c.36,1-.11,1.89-1.34,2.43Z"/></svg>