<svg id="Layer_3" data-name="Layer 3" xmlns="http://www.w3.org/2000/svg" viewBox="0 0 140 140"><defs><style>.cls-1{fill:none;}.cls-2{fill:#47b8e9;}.cls-3{fill:#48ba7f;}.cls-4{fill:#f37264;}.cls-5{fill:#f05023;}.cls-6{fill:#8162aa;}</style></defs><title>Artboard 2</title><path class="cls-1" d="M27.56,6.34h84.88V133.66H27.56Z"/><path class="cls-2" d="M70,70A21.22,21.22,0,1,1,91.22,91.22,21.22,21.22,0,0,1,70,70Z"/><path class="cls-3" d="M27.56,112.44A21.22,21.22,0,0,1,48.78,91.22H70v21.22a21.22,21.22,0,0,1-42.44,0Z"/><path class="cls-4" d="M70,6.34V48.78H91.22a21.22,21.22,0,0,0,0-42.44Z"/><path class="cls-5" d="M27.56,27.56A21.22,21.22,0,0,0,48.78,48.78H70V6.34H48.78A21.22,21.22,0,0,0,27.56,27.56Z"/><path class="cls-6" d="M27.56,70A21.22,21.22,0,0,0,48.78,91.22H70V48.78H48.78A21.22,21.22,0,0,0,27.56,70Z"/></svg>