<svg id="Layer_5" data-name="Layer 5" xmlns="http://www.w3.org/2000/svg" viewBox="0 0 140 140"><defs><style>.cls-1{fill:#f7911e;}.cls-2{fill:#ffc50f;}.cls-3{fill:#dc3326;}</style></defs><title>Artboard 5</title><path class="cls-1" d="M50.51,126.05a47.36,47.36,0,0,0,37.53-1,66.78,66.78,0,0,1-21-13.15A35.87,35.87,0,0,1,50.51,126.05Z"/><path class="cls-2" d="M67.09,112A66.75,66.75,0,0,1,45.63,60.46c0-.66,0-1.32.09-2a35.55,35.55,0,0,0-18.66.19A47.36,47.36,0,0,0,50.5,126.05,35.89,35.89,0,0,0,67.09,112Z"/><path class="cls-1" d="M67.09,112A35.71,35.71,0,0,0,45.72,58.49c0,.65-.07,1.31-.09,2A66.75,66.75,0,0,0,67.09,112Z"/><path class="cls-3" d="M70.69,10.54a66.79,66.79,0,0,0-25,48A35.72,35.72,0,0,1,67.08,112a66.89,66.89,0,0,0,21,13.15,47.32,47.32,0,0,0,27.48-41.34c.42-12-4.18-22.63-10.68-31.63C98,42.62,70.69,10.54,70.69,10.54Z"/></svg>