<svg id="Layer_6" data-name="Layer 6" xmlns="http://www.w3.org/2000/svg" viewBox="0 0 140 140"><defs><style>.cls-1{fill:#eb1000;}.cls-2{fill:#fff;}</style></defs><title>Artboard 8</title><g id="Surfaces"><g id="DC_EC_Logo_Surface" data-name="DC EC Logo Surface"><g id="Outline_no_shadow" data-name="Outline no shadow"><rect class="cls-1" x="15.06" y="15.34" width="114.43" height="110.34" rx="20.25"/></g></g></g><g id="Outlined_Mnemonics_Logos" data-name="Outlined Mnemonics Logos"><g id="Firefly_Mnemonic_One_Sparkle" data-name="Firefly Mnemonic One Sparkle"><path class="cls-2" d="M59.14,92.11a.58.58,0,0,1-.66.66H49.14c-.36,0-.51-.27-.51-.66V43.83c0-.43.15-.6.57-.6H79.14c.51,0,.63.15.72.64L80.69,52c.09.45-.14.66-.63.66H59.14V64.16H78c.43,0,.63.14.63.59V73c0,.45-.23.59-.59.59H59.14Z"/><path class="cls-2" d="M86.29,55.82a.56.56,0,0,1,.64-.63h9.29c.49,0,.64.12.64.61V92.05c0,.49-.15.7-.7.7H87.05c-.51,0-.76-.23-.76-.72V55.82Z"/><path class="cls-2" d="M93.85,47l4.62,1a1.89,1.89,0,0,0,1.82-3.13l-3.21-3.47a1.85,1.85,0,0,1-.45-1.7l1-4.62a1.89,1.89,0,0,0-3.14-1.8l-3.48,3.21a1.82,1.82,0,0,1-1.69.45l-4.62-1a1.89,1.89,0,0,0-1.82,3.13l3.21,3.47a1.85,1.85,0,0,1,.45,1.7l-1,4.61a1.89,1.89,0,0,0,3.14,1.8l3.48-3.21A1.84,1.84,0,0,1,93.85,47Z"/></g></g></svg>