<?xml version="1.0" encoding="utf-8"?>
<!-- Generator: Adobe Illustrator 24.0.1, SVG Export Plug-In . SVG Version: 6.00 Build 0)  -->
<svg version="1.1" xmlns="http://www.w3.org/2000/svg" xmlns:xlink="http://www.w3.org/1999/xlink" x="0px" y="0px"
	 viewBox="0 0 3194.6 3839.9" style="enable-background:new 0 0 3194.6 3839.9;" xml:space="preserve">
<style type="text/css">
	.st0{display:none;}
	.st1{display:inline;fill-rule:evenodd;clip-rule:evenodd;fill:#020202;}
	.st2{fill-rule:evenodd;clip-rule:evenodd;fill:#FDFDFE;}
	.st3{fill-rule:evenodd;clip-rule:evenodd;fill:#F58220;}
	.st4{fill:#F58220;}
	.st5{fill:#FDFDFE;}
</style>
<g id="Layer_2" class="st0">
	<rect x="-872.4" y="1367" class="st1" width="3972" height="996.1"/>
</g>
<g id="Layer_3">
	<g>
		<path class="st2" d="M945.3,1354.7c-90.8-90.8-90.8-238.1,0-328.9s238.1-90.8,328.9,0c90.8,90.8,90.8,238.1,0,328.9
			C1183.4,1445.5,1036.1,1445.5,945.3,1354.7L945.3,1354.7z"/>
		<path class="st2" d="M537.9,892.4c-75.7-75.7-75.7-198.4,0-274.1s198.4-75.7,274.1,0s75.7,198.4,0,274.1S613.5,968.1,537.9,892.4
			L537.9,892.4z"/>
		<path class="st2" d="M1274.3,2224.5c-90.8,90.8-238.1,90.8-328.9,0s-90.8-238.1,0-328.9c90.8-90.8,238.1-90.8,328.9,0
			C1365.1,1986.4,1365.1,2133.7,1274.3,2224.5L1274.3,2224.5z"/>
		<path class="st2" d="M812,2631.9c-75.7,75.7-198.4,75.7-274.1,0c-75.7-75.7-75.7-198.4,0-274.1c75.7-75.7,198.4-75.7,274.1,0
			C887.6,2433.5,887.6,2556.3,812,2631.9L812,2631.9z"/>
		<path class="st2" d="M1709.1,2659.3c-90.8,90.8-238.1,90.8-328.9,0s-90.8-238.1,0-328.9s238.1-90.8,328.9,0
			S1799.9,2568.5,1709.1,2659.3L1709.1,2659.3z"/>
		<g>
			<path class="st3" d="M1752.6,1417.1c114.8,114.9,114.8,301.1,0,416s-301.1,114.8-416,0c-114.8-114.8-114.8-301.1,0-416
				C1451.6,1302.3,1637.8,1302.3,1752.6,1417.1L1752.6,1417.1z"/>
			<path class="st3" d="M2144,1895.5c90.8,90.8,90.8,238.1,0,328.9c-90.8,90.8-238.1,90.8-328.9,0c-90.8-90.8-90.8-238.1,0-328.9
				C1905.9,1804.7,2053.2,1804.7,2144,1895.5L2144,1895.5z"/>
			<path class="st3" d="M2551.5,2357.8c75.7,75.7,75.7,198.4,0,274.1c-75.7,75.7-198.4,75.7-274.1,0c-75.7-75.7-75.7-198.4,0-274.1
				C2353.1,2282.2,2475.8,2282.2,2551.5,2357.8L2551.5,2357.8z"/>
			<path class="st3" d="M1815.1,1025.8c90.8-90.8,238.1-90.8,328.9,0s90.8,238.1,0,328.9c-90.8,90.8-238.1,90.8-328.9,0
				S1724.3,1116.6,1815.1,1025.8L1815.1,1025.8z"/>
			<path class="st3" d="M2277.4,618.3c75.7-75.7,198.4-75.7,274.1,0c75.7,75.7,75.7,198.4,0,274.1c-75.7,75.7-198.4,75.7-274.1,0
				C2201.7,816.7,2201.7,694,2277.4,618.3L2277.4,618.3z"/>
			<path class="st3" d="M2250,1460.6c90.8-90.8,238.1-90.8,328.9,0c90.8,90.8,90.8,238.1,0,328.9c-90.8,90.8-238.1,90.8-328.9,0
				C2159.2,1698.7,2159.2,1551.4,2250,1460.6L2250,1460.6z"/>
		</g>
		<path class="st2" d="M510.5,1460.7c-90.8,90.8-90.8,238.1,0,328.9c90.8,90.8,238.1,90.8,328.9,0c90.8-90.8,90.8-238.1,0-328.9
			C748.6,1369.9,601.3,1369.9,510.5,1460.7L510.5,1460.7z"/>
		<path class="st2" d="M1709.2,919.8c90.8-90.8,90.8-238.1,0-328.9c-90.8-90.8-238.1-90.8-328.9,0c-90.8,90.8-90.8,238.1,0,328.9
			C1471.1,1010.6,1618.4,1010.6,1709.2,919.8L1709.2,919.8z"/>
	</g>
	<g>
		<path class="st4" d="M394,3027v41.3c-15.5-6.6-28.7-9.9-39.7-9.9c-8.2,0-15.1,1.7-20.5,5s-8.8,7.1-10.2,11.4
			c-1.4,4.3-2.1,15.8-2.1,34.5l0,44.3h68.4v36.4h-68.4l-0.2,291.2h-42.2v-291.2h-43.1v-36.4h43.1v-51.2c0-23.5,2.2-40.2,6.5-50.3
			c4.3-10,11.6-18.1,22-24.2c10.3-6.1,22.8-9.2,37.5-9.2C358.5,3018.6,374.9,3021.4,394,3027z"/>
		<path class="st4" d="M467.3,3018.6c9.6,0,17.8,3.4,24.6,10.2c6.8,6.8,10.2,15.1,10.2,24.7c0,9.4-3.4,17.6-10.2,24.4
			c-6.8,6.8-15,10.2-24.6,10.2c-9.4,0-17.5-3.4-24.3-10.2c-6.8-6.8-10.2-15-10.2-24.4c0-9.6,3.4-17.9,10.2-24.7
			C449.8,3022,457.9,3018.6,467.3,3018.6z M446.4,3153.5h42.2v327.6h-42.2V3153.5z"/>
		<path class="st4" d="M538.8,3153.5h50.6l87.1,119.9l86.2-119.9h50.7l-111.5,154.8l125.7,172.9h-51.3l-99.7-137.6l-99.1,137.6
			h-50.3l124.1-172.6L538.8,3153.5z"/>
		<path class="st5" d="M918.7,3038.2h82.2l102.7,309l103.6-309h82.1l74.3,443h-81.5l-47.5-279.7l-94.1,279.7h-74.3l-93.3-279.7
			l-48.6,279.7H842L918.7,3038.2z"/>
		<path class="st5" d="M1575.6,3145.1c30.9,0,60,7.7,87.2,23.2c27.2,15.5,48.4,36.4,63.7,62.9c15.3,26.5,22.9,55.1,22.9,85.8
			c0,30.9-7.7,59.8-23,86.7c-15.4,26.9-36.3,47.9-62.8,63.1c-26.5,15.2-55.7,22.7-87.6,22.7c-47,0-87.1-16.7-120.3-50.1
			c-33.2-33.4-49.8-74-49.8-121.8c0-51.2,18.8-93.8,56.3-128C1495,3159.9,1532.8,3145.1,1575.6,3145.1z M1576.9,3222.5
			c-25.5,0-46.8,8.9-63.8,26.6c-17,17.8-25.5,40.5-25.5,68.2c0,28.5,8.4,51.6,25.2,69.3c16.8,17.7,38.1,26.5,63.8,26.5
			c25.7,0,47.2-8.9,64.2-26.8c17.1-17.9,25.6-40.9,25.6-69c0-28.1-8.4-50.9-25.2-68.5C1624.5,3231.3,1603.1,3222.5,1576.9,3222.5z"
			/>
		<path class="st5" d="M1898.1,3027v162.6c14.9-14.9,30.9-26,48.2-33.4c17.3-7.4,35.7-11.1,55.4-11.1c42.8,0,79.1,16.2,109,48.5
			c29.9,32.3,44.9,73.8,44.9,124.4c0,48.8-15.5,89.6-46.4,122.4c-30.9,32.8-67.6,49.2-109.9,49.2c-18.9,0-36.4-3.4-52.7-10.1
			s-32.4-17.7-48.5-33v34.6h-81.6V3027H1898.1z M1984.5,3221c-25.9,0-47.4,8.8-64.4,26.5c-17.1,17.7-25.6,40.8-25.6,69.3
			c0,29.1,8.5,52.7,25.6,70.6c17.1,18,38.5,27,64.4,27c25.1,0,46.2-9.1,63.4-27.4c17.2-18.3,25.7-41.6,25.7-69.9
			c0-28.1-8.4-51.1-25.3-69.1C2031.5,3229.9,2010.2,3221,1984.5,3221z"/>
		<path class="st5" d="M2255.7,3018.6c14.4,0,26.8,5.2,37.1,15.7c10.3,10.4,15.5,23.1,15.5,37.9c0,14.7-5.1,27.2-15.3,37.5
			c-10.2,10.3-22.4,15.5-36.6,15.5c-14.6,0-27.1-5.3-37.4-15.8c-10.3-10.5-15.5-23.3-15.5-38.4c0-14.5,5.1-26.8,15.3-37
			S2241.3,3018.6,2255.7,3018.6z M2214.6,3153.5h82.2v327.6h-82.2V3153.5z"/>
		<path class="st5" d="M2362.4,3027h82.2v454.1h-82.2V3027z"/>
		<path class="st5" d="M2847.6,3341.1h-264.1c3.8,23.3,14,41.8,30.6,55.6c16.6,13.8,37.7,20.6,63.4,20.6c30.7,0,57.1-10.7,79.2-32.2
			l69.3,32.5c-17.3,24.5-37.9,42.6-62,54.4c-24.1,11.7-52.7,17.6-85.8,17.6c-51.4,0-93.3-16.2-125.6-48.6
			c-32.3-32.4-48.5-73-48.5-121.8c0-50,16.1-91.5,48.3-124.5c32.2-33,72.6-49.5,121.2-49.5c51.6,0,93.5,16.5,125.9,49.5
			c32.3,33,48.5,76.6,48.5,130.8L2847.6,3341.1z M2765.3,3276.4c-5.4-18.3-16.1-33.1-32.1-44.6c-16-11.4-34.5-17.2-55.7-17.2
			c-22.9,0-43,6.4-60.3,19.3c-10.9,8-20.9,22.2-30.2,42.5H2765.3z"/>
	</g>
</g>
</svg>
