<svg id="Layer_4" data-name="Layer 4" xmlns="http://www.w3.org/2000/svg" viewBox="0 0 140 140"><defs><style>.cls-1{fill:#5cbb52;}</style></defs><title>Artboard 3</title><path id="path32" class="cls-1" d="M72.26,63.89a.91.91,0,0,1-.91.88H62a1.12,1.12,0,0,1-1.12-1.1c0-2.72-.94-4-2.87-4a3,3,0,0,0-3.2,3.25c0,2.3,1.26,4.39,5,8,4.88,4.58,6.83,8.64,6.74,14-.16,8.66-6.05,14.27-15,14.27-4.57,0-8.07-1.23-10.4-3.64s-3.44-6.06-3.22-10.71a.91.91,0,0,1,.91-.87h9.64a.89.89,0,0,1,.69.34.82.82,0,0,1,.18.64,4.81,4.81,0,0,0,.84,3.62,2.29,2.29,0,0,0,1.75.68c1.78,0,2.82-1.26,2.86-3.45,0-1.9-.57-3.56-3.83-6.92-4.22-4.12-8-8.37-7.88-15.06a13.93,13.93,0,0,1,4.34-10,16.31,16.31,0,0,1,11.42-4.14c4.6,0,8.08,1.34,10.35,3.89s3.19,5.91,3.07,10.38Z"/><path id="path34" class="cls-1" d="M101.14,97.5l.06-46.1a.87.87,0,0,0-.86-.88H85.91c-.49,0-.7.42-.84.69l-20.88,46h0A.86.86,0,0,0,65,98.4H75.08a1.08,1.08,0,0,0,1.08-.5l2-4.81c.24-.65.29-.71,1-.71h9.63c.67,0,.68,0,.67.67l-.21,4.48a.85.85,0,0,0,.85.87h10.2a.83.83,0,0,0,.67-.3.76.76,0,0,0,.17-.6ZM83.3,82.11h-.23a.24.24,0,0,1-.22-.26.09.09,0,0,1,0,0c0-.06,0-.15.08-.26l7.23-17.87a4.77,4.77,0,0,1,.22-.52c.12-.24.26-.26.3-.08s-.82,18.35-.82,18.35c-.07.68-.1.71-.77.77l-5.8-.07h0Z"/><path id="path36" class="cls-1" d="M121.68,50.52H114a.94.94,0,0,0-1,.7L102.41,97.47a.68.68,0,0,0,.14.6.91.91,0,0,0,.72.33h9.57a.88.88,0,0,0,1-.68L115,92.47a.78.78,0,0,0-.42-.92l-.52-.26-1.66-.87-1.65-.86-.63-.33a.28.28,0,0,1-.17-.28.32.32,0,0,1,.33-.32l5.24,0a25.27,25.27,0,0,0,4.68-.38c10.86-2,18.07-10.7,18.28-22.54.18-10.1-5.46-15.21-16.75-15.21Zm-2.61,27.53h-.2c-.46,0-.54,0-.56-.07s3-13.32,3-13.34c.08-.38.07-.61-.16-.74l-4.73-2.5a.3.3,0,0,1-.17-.28.32.32,0,0,1,.32-.32h7c2.18.07,3.4,2,3.34,5.34-.1,5.77-2.84,11.7-7.87,11.91Z"/><g id="g71"><path id="path60" class="cls-1" d="M42.91,72.85v0l-1.77,7.7a1,1,0,0,1-1,.75H38a.35.35,0,0,0-.34.26c-2,6.7-4.66,11.31-8.19,14.08-3,2.36-6.72,3.46-11.67,3.46a12.34,12.34,0,0,1-10-4.26C4.4,91.14,3,85,3.86,77.66c1.52-13.82,8.69-27.77,22.49-27.77,4.2,0,7.5,1.26,9.79,3.84,2.43,2.74,3.66,6.86,3.67,12.25a.92.92,0,0,1-.91.89H28.78a.71.71,0,0,1-.67-.68c-.08-3.73-1.19-5.55-3.38-5.55-3.88,0-6.17,5.27-7.38,8.19A30.59,30.59,0,0,0,15,81.74c.08,2.05.41,4.94,2.36,6.13,1.73,1.06,4.19.36,5.69-.81A10.21,10.21,0,0,0,26.2,82a.68.68,0,0,0,0-.55c-.07-.09-.26-.11-.42-.11H23.2a1,1,0,0,1-.73-.33.72.72,0,0,1-.14-.6l1.78-7.72A1,1,0,0,1,25,72v0H42.16a.88.88,0,0,1,.74.91Z"/></g></svg>