<svg id="Layer_2" data-name="Layer 2" xmlns="http://www.w3.org/2000/svg" viewBox="0 0 140 140"><defs><style>.cls-1{fill:#451022;}.cls-2{fill:#ee3a68;}</style></defs><title>Artboard 4</title><path class="cls-1" d="M29.59,9h80.82a22.15,22.15,0,0,1,22.17,22.16v77.7A22.15,22.15,0,0,1,110.41,131H29.59A22.15,22.15,0,0,1,7.42,108.85V31.15A22.15,22.15,0,0,1,29.59,9Z"/><path class="cls-2" d="M51.49,44.32H41.32c-.47,0-.73.21-.73.68V98.71c0,.57.21.83.68.83H51.49c.47,0,.73-.26.73-.83V45a.2.2,0,0,0,0-.16A.6.6,0,0,0,51.49,44.32Z"/><path class="cls-2" d="M99.2,93.08c0-1.15-.1-2.19-.1-3.13V40.2a.45.45,0,0,0-.52-.36H88c-.36,0-.52.2-.52.57V56.89c-.63,0-1.15,0-1.62-.11a9.64,9.64,0,0,0-1.09-.05,26.64,26.64,0,0,0-13.2,3A21.39,21.39,0,0,0,60.4,78.84a22.55,22.55,0,0,0,2.87,11.89,18.14,18.14,0,0,0,7.88,7.09,25.89,25.89,0,0,0,11.21,2.35h0a45.51,45.51,0,0,0,8-.73,40.13,40.13,0,0,0,8.5-2.5.86.86,0,0,0,.52-.84C99.36,95.22,99.31,94.17,99.2,93.08ZM87.47,89.74a4.45,4.45,0,0,1-1.88.26c-.68,0-1.41.11-2.19.11a13.65,13.65,0,0,1-4.33-.68,9,9,0,0,1-3.54-2.09,10,10,0,0,1-2.35-3.7,14.71,14.71,0,0,1-.89-5.37,10.79,10.79,0,0,1,6.16-10.48,12.83,12.83,0,0,1,5.89-1.36,16.55,16.55,0,0,1,1.72.11,11.62,11.62,0,0,1,1.41.26Z"/></svg>