<svg id="Layer_4" data-name="Layer 4" xmlns="http://www.w3.org/2000/svg" viewBox="0 0 140 140"><defs><style>.cls-1{fill:#f6df19;}.cls-2{fill:#010101;}</style></defs><title>Artboard 1</title><rect class="cls-1" x="13.53" y="14.63" width="116.88" height="116.88"/><path class="cls-2" d="M92,106c2.35,3.84,5.42,6.66,10.84,6.66,4.55,0,7.45-2.27,7.45-5.41,0-3.77-3-5.1-8-7.29l-2.75-1.18C91.67,95.35,86.4,91.12,86.4,82.18c0-8.24,6.28-14.51,16.09-14.51,7,0,12,2.43,15.62,8.8L109.55,82c-1.88-3.38-3.91-4.71-7.06-4.71s-5.26,2-5.26,4.71c0,3.29,2,4.63,6.75,6.67l2.75,1.17c9.33,4,14.6,8.08,14.6,17.26,0,9.88-7.77,15.3-18.2,15.3-10.2,0-16.79-4.86-20-11.23Zm-38.8,1c1.73,3.06,3.3,5.65,7.07,5.65,3.61,0,5.89-1.42,5.89-6.91V68.3h11v37.49c0,11.38-6.67,16.55-16.4,16.55-8.8,0-13.89-4.55-16.48-10Z"/></svg>