<svg id="Layer_6" data-name="Layer 6" xmlns="http://www.w3.org/2000/svg" viewBox="0 0 140 140"><defs><style>.cls-1{fill:#fdfffe;}</style></defs><title>Artboard 3</title><path class="cls-1" d="M52.51,86.89a60.48,60.48,0,0,0,17.07-2.78c13.94-4.67,24.5-13.36,31.36-26.44a49.27,49.27,0,0,0,5.24-18c.37-3.56.37-7.16-1.3-10.5a16.09,16.09,0,0,0-17-8.79A15.49,15.49,0,0,0,74.31,33.52c-.25,1.47,0,3-.28,4.47C72.28,48.25,64.42,55.3,54,56.21a31.68,31.68,0,0,0-7.68,1.24,14.78,14.78,0,0,0-6.05,24.26A15.51,15.51,0,0,0,52.51,86.89ZM94.59,75.76A62,62,0,0,1,65.65,91a5,5,0,0,0,.43.56,20.73,20.73,0,0,1,8.16,17,12.23,12.23,0,0,0,.83,4c2.64,7.21,9.69,11.23,17.63,10.14a15.39,15.39,0,0,0,13.61-15.45A47.88,47.88,0,0,0,104,93,51,51,0,0,0,94.59,75.76ZM36.24,86.46a5.29,5.29,0,0,0-.09.76c0,7.17,0,14.34.09,21.52a11.44,11.44,0,0,0,.72,3.74,16.32,16.32,0,0,0,22.92,8.6c6.1-3.3,9.4-9.67,8.17-15.79A15.88,15.88,0,0,0,52.44,92.44a20,20,0,0,1-8.86-1.78C41.08,89.41,38.72,87.89,36.24,86.46Zm0-29.32.7-.57A22.7,22.7,0,0,1,50,50.84a37.37,37.37,0,0,0,7.56-1.1C66.7,46.91,71,36.53,66.48,28.45a16.42,16.42,0,0,0-20.19-7.19c-5.77,2.32-9.62,6.5-10,12.76C35.88,41.59,36.21,49.21,36.21,57.14Z"/><path class="cls-1" d="M52.51,86.89a15.51,15.51,0,0,1-12.25-5.18,14.78,14.78,0,0,1,6.05-24.26A31.68,31.68,0,0,1,54,56.21c10.43-.91,18.29-8,20-18.22.26-1.46,0-3,.28-4.47A15.49,15.49,0,0,1,87.9,20.38a16.09,16.09,0,0,1,17,8.79c1.67,3.34,1.67,6.94,1.3,10.5a49.27,49.27,0,0,1-5.24,18C94.08,70.75,83.52,79.44,69.58,84.11A60.48,60.48,0,0,1,52.51,86.89Z"/><path class="cls-1" d="M94.59,75.76A51,51,0,0,1,104,93a47.88,47.88,0,0,1,2.28,14.3A15.39,15.39,0,0,1,92.7,122.71c-7.94,1.09-15-2.93-17.63-10.14a12.23,12.23,0,0,1-.83-4,20.73,20.73,0,0,0-8.16-17,5,5,0,0,1-.43-.56A62,62,0,0,0,94.59,75.76Z"/><path class="cls-1" d="M36.24,86.46c2.48,1.43,4.84,3,7.34,4.2a20,20,0,0,0,8.86,1.78,15.88,15.88,0,0,1,15.61,12.85c1.23,6.12-2.07,12.49-8.17,15.79A16.32,16.32,0,0,1,37,112.48a11.44,11.44,0,0,1-.72-3.74c-.09-7.18-.07-14.35-.09-21.52A5.29,5.29,0,0,1,36.24,86.46Z"/><path class="cls-1" d="M36.21,57.14c0-7.93-.33-15.55.11-23.12.35-6.26,4.2-10.44,10-12.76a16.42,16.42,0,0,1,20.19,7.19c4.48,8.08.22,18.46-8.9,21.29A37.37,37.37,0,0,1,50,50.84a22.7,22.7,0,0,0-13.11,5.73Z"/></svg>