<svg id="Layer_1" data-name="Layer 1" xmlns="http://www.w3.org/2000/svg" viewBox="0 0 140 140"><defs><style>.cls-1{fill:#f36d21;}.cls-2{fill:#cb5127;}.cls-3{fill:#ffca74;}</style></defs><title>Artboard 5</title><path class="cls-1" d="M14.78,38v64.87L70,135.28V119.19L28.53,94.8V46Z"/><path class="cls-2" d="M111.56,46v64.87l13.75-8V38Z"/><path class="cls-3" d="M56.29,13.58,111.56,46,125.31,38,70,5.54Z"/><path class="cls-3" d="M14.78,38,28.53,46,42.28,38l-13.75-8Z"/><path class="cls-2" d="M28.53,46V94.54l13.75-8.05V38Z"/><path class="cls-2" d="M70,119.19v16.09l13.76-8V110.89Z"/><path class="cls-3" d="M28.53,94.8,70,119.19l13.76-8L42.28,86.75Z"/><path class="cls-1" d="M56.29,13.58V29.93L97.81,54.32V103.1l13.75,8.05V46.28Z"/></svg>