<?xml version="1.0" encoding="utf-8"?>
<!-- Generator: Adobe Illustrator 24.0.1, SVG Export Plug-In . SVG Version: 6.00 Build 0)  -->
<svg version="1.1" id="Layer_1" xmlns="http://www.w3.org/2000/svg" xmlns:xlink="http://www.w3.org/1999/xlink" x="0px" y="0px"
	 viewBox="0 0 134.4 117.4" style="enable-background:new 0 0 134.4 117.4;" xml:space="preserve">
<style type="text/css">
	.st0{fill:#FFFFFF;}
</style>
<g>
	<path class="st0" d="M13.5,56.3h4.4c5.7,0,11.4,0.5,17.1,1.7c6,1.3,11.8,3.3,17.1,6.6c6.6,4.2,11.3,9.9,13.5,17.4
		c0.6,2.1,0.9,4.2,1.3,6.4c0,0.2,0.1,0.3,0.1,0.6c1.2-0.5,2.3-1,3.2-1.8c3.4-2.9,4.7-7.7,3.2-12.1c-1.4-4.3-4.3-7.3-8.2-9.5
		c-3.1-1.7-6.2-3.3-9.2-5.2c-4.6-3-8.1-7.1-10-12.4c-0.5-1.3-0.7-2.7-1-4c0-0.2-0.1-0.4-0.2-0.6c-2.2,4-3.3,8.2-3.9,12.7
		c-0.7-0.2-1.4-0.4-2.1-0.6c-1.6-0.4-3.3-0.8-4.9-1.1c-0.4-0.1-0.5-0.2-0.4-0.6c0.8-4.8,2-9.4,4.3-13.6c3.1-5.9,7.3-10.7,13.1-14
		c2.6-1.5,5.3-2.5,8.2-2.9c8.5-1.3,15.8,1.2,22.1,6.9c4.1,3.6,7.1,8,9,13.1c1,2.5,1.6,5,2.3,7.5c0.1,0.2,0.1,0.3,0.1,0.5
		c-2.7-0.6-5.2-1.4-7.6-2.5c-0.7-0.3-1.2-0.8-1.4-1.5c-1.8-4.8-4.5-9-8.5-12.3c-2.2-1.8-4.6-2.9-7.2-3.8c-0.1,0-0.2,0-0.4,0
		c0.2,0.9,0.3,1.8,0.5,2.7c1.6,6.9,5.4,12,11.4,15.6c5.2,3.1,10.9,4.8,16.9,5.7c5.1,0.8,10.3,1,15.5,1c5.3,0,9.6,2.3,12.6,6.6
		c2.1,2.9,3.1,6.2,2.9,9.8c-0.6,8.2-6.9,13.7-13.7,14.4c-1.5,0.2-3.1,0-4.7,0c0.4-0.8,0.9-1.6,1.3-2.4c0.7-1.4,1.4-2.9,2.1-4.4
		c0.2-0.5,0.4-0.8,1.1-0.9c3.1-0.5,5.6-3.3,6.2-6.4c0.7-4-2.4-9-7.8-9c-2.6,0-5.3,0-7.9-0.2c-6.1-0.3-12.2-1.2-18.1-3.1
		c-5.2-1.7-10.1-4-14.4-7.4C64.7,48,61,41,59.8,32.7c0-0.3-0.1-0.6-0.1-0.9c0-0.5-0.2-0.6-0.7-0.4c-4.8,1.9-7,6.8-6.4,11.5
		c0.7,4.9,3.6,8.4,7.6,11.1c2.1,1.4,4.4,2.4,6.6,3.6c4.8,2.5,9,5.9,11.9,10.6c1.5,2.5,2.5,5.2,2.9,8.2c0,0.2,0.1,0.3,0.2,0.6
		c2.3-4.1,3.4-8.5,3.9-12.9c2.5,0.6,5,1.2,7.6,1.8c-0.3,1.4-0.5,2.9-0.8,4.3c-1.4,6.1-3.9,11.6-7.9,16.4c-3.7,4.5-8.3,7.8-14,9.5
		c-8.3,2.5-15.9,0.8-22.9-4.3c-5.1-3.7-8.6-8.7-11.1-14.4c-0.6-1.4-1.1-2.8-1.5-4.2c-0.5-1.4-0.8-2.8-1.2-4.4c0.3,0,0.4,0,0.5,0.1
		c2.7,0.6,5.3,1.5,7.8,2.6c0.2,0.1,0.4,0.3,0.5,0.5c0.8,1.8,1.5,3.6,2.4,5.3c2.4,4.8,6.2,8.3,11.1,10.6c0.8,0.4,1.7,0.6,2.6,0.9
		c0.1,0,0.2,0,0.3,0c0-0.2,0-0.3,0-0.4c-0.7-4.1-2-7.9-4.5-11.3c-2.2-2.9-4.8-5.1-8-6.9c-4.8-2.8-10-4.3-15.5-5.2c-3-0.5-6-0.7-9-1
		c-0.5-0.1-0.7,0.1-0.6,0.6c1.9,13.8,8.7,24.5,20.7,31.6c7.7,4.6,16.1,6.3,25,5.5c12.3-1.2,22.3-6.9,29.7-16.7
		c4-5.2,6.4-11.1,7.7-17.4c0-0.2,0.1-0.4,0.1-0.5h7.8c-2.4,14.8-9.7,26.4-22.2,34.5c-16.8,10.9-37.5,10.6-53.2,0.6
		C20.4,91.6,12.9,76,13.5,56.3L13.5,56.3z"/>
	<path class="st0" d="M68.6,10.4c0,2.9-2.5,5.4-5.3,5.4c-3,0-5.4-2.8-5.5-5.5c0-2.8,2.7-5.4,5.3-5.3C66.1,5.1,68.6,7.5,68.6,10.4
		L68.6,10.4L68.6,10.4z"/>
	<path class="st0" d="M35,18.5c0-3,2.5-5.4,5.4-5.3c2.8,0.1,5.3,2.6,5.3,5.3c0,2.8-2.5,5.3-5.3,5.3C37.4,23.8,34.9,21.4,35,18.5
		C35,18.6,35,18.6,35,18.5z"/>
	<path class="st0" d="M97.6,37.3c0-3,2.3-5.4,5.2-5.4c3.1,0,5.5,2.4,5.5,5.3c0,2.8-2.5,5.3-5.3,5.3C100,42.6,97.6,40.2,97.6,37.3
		L97.6,37.3z"/>
	<path class="st0" d="M23.5,31.9c3,0,5.4,2.5,5.3,5.3c0,2.9-2.5,5.4-5.3,5.3c-2.7-0.1-5.4-2.2-5.4-5.2
		C18.2,34.3,20.5,31.9,23.5,31.9C23.5,31.9,23.5,31.9,23.5,31.9z"/>
	<path class="st0" d="M91.5,18.5c0,2.9-2.4,5.3-5.3,5.3s-5.4-2.4-5.4-5.3s2.4-5.4,5.3-5.4C89.1,13.2,91.5,15.6,91.5,18.5z"/>
</g>
</svg>
