<svg id="Layer_6" data-name="Layer 6" xmlns="http://www.w3.org/2000/svg" viewBox="0 0 140 140"><defs><style>.cls-1{fill:#fcfafa;}</style></defs><title>Artboard 4</title><g id="Surfaces"><g id="DC_EC_Logo_Surface" data-name="DC EC Logo Surface"><g id="Outline_no_shadow" data-name="Outline no shadow"><rect class="cls-1" x="12.78" y="15.34" width="114.43" height="110.34" rx="20.25"/></g></g></g><path d="M105.61,100.49c-2.34,0-3.93-1.34-5.34-2.53-1.2-1-2.24-1.88-3.58-1.88S94.31,97,93.11,98c-1.41,1.19-3,2.53-5.33,2.53S83.85,99.15,82.44,98c-1.2-1-2.24-1.88-3.58-1.88S76.48,97,75.28,98c-1.41,1.19-3,2.53-5.33,2.53S66,99.15,64.61,98c-1.2-1-2.24-1.88-3.58-1.88S58.65,97,57.45,98c-1.41,1.19-3,2.53-5.33,2.53H52a11.91,11.91,0,0,1-7.12-3.79,6.64,6.64,0,0,0-1.55-1.23,12.77,12.77,0,0,0-4.63,2.73c-1.57,1.23-2.92,2.3-4.36,2.3a1.37,1.37,0,1,1,0-2.73c.49,0,1.75-1,2.67-1.72,1.65-1.29,3.69-2.9,6-3.3l.23,0c1.39,0,2.41,1,3.5,2a9.43,9.43,0,0,0,5.49,3.05c1.31,0,2.33-.89,3.51-1.89,1.4-1.18,3-2.52,5.33-2.52s3.93,1.34,5.34,2.52c1.2,1,2.24,1.89,3.58,1.89s2.37-.88,3.58-1.89c1.4-1.18,3-2.52,5.33-2.52s3.93,1.34,5.34,2.52c1.2,1,2.24,1.89,3.58,1.89s2.37-.88,3.58-1.89c1.4-1.18,3-2.52,5.33-2.52s3.93,1.34,5.34,2.52c1.2,1,2.24,1.89,3.58,1.89a1.37,1.37,0,0,1,0,2.73Z"/><path d="M83.5,98.47a1.36,1.36,0,0,1-.58-2.6,76,76,0,0,0,13.91-8.08L41.24,91.37l1.43,2.74a1.36,1.36,0,0,1-2.42,1.26l-2.4-4.59a1.37,1.37,0,0,1,1.12-2l61.88-4a1.33,1.33,0,0,1,1.34.83,1.37,1.37,0,0,1-.33,1.54c-4.42,4-10.23,7.67-17.79,11.17A1.28,1.28,0,0,1,83.5,98.47Z"/><path d="M94,84.21a1.31,1.31,0,0,1-.5-.1l-.78-.31c-2.32-.94-4-1.61-7-.83A1.36,1.36,0,0,1,84,82C79.71,66.47,72.63,55.19,62.92,48.48a1.38,1.38,0,0,1-.45-1.72,1.35,1.35,0,0,1,1.62-.71c5.48,1.67,12,6.44,17.83,13.09A64.31,64.31,0,0,1,95.27,82.45a1.38,1.38,0,0,1-.38,1.4A1.41,1.41,0,0,1,94,84.21ZM88.13,79.9a11.12,11.12,0,0,1,3.63.63A63.68,63.68,0,0,0,73.89,55c5.31,6.52,9.45,14.89,12.38,25A12.45,12.45,0,0,1,88.13,79.9Z"/><path d="M43.86,86.65a1.37,1.37,0,0,1-1.07-2.21c13.49-17.14,4.6-36.36.15-43.82a1.37,1.37,0,0,1,.15-1.6,1.36,1.36,0,0,1,1.56-.36A66.39,66.39,0,0,1,66.6,54.75C74.35,63.27,79.27,73,80.85,82.91A1.37,1.37,0,0,1,79,84.39c-12.47-5-24-4.33-34.41,2.06A1.33,1.33,0,0,1,43.86,86.65ZM47.35,43c4.31,8.65,9.17,23.83.71,38.52,9.17-4.07,19.11-4.26,29.65-.54C73.79,62.76,58.76,49.19,47.35,43Z"/></svg>