<svg id="Layer_1" data-name="Layer 1" xmlns="http://www.w3.org/2000/svg" viewBox="0 0 140 140"><defs><style>.cls-1{fill:#ffd133;}.cls-2{fill:#111036;fill-rule:evenodd;}</style></defs><title>Artboard 1</title><path class="cls-1" d="M34.14,6.64h70.72A27.22,27.22,0,0,1,132,33.78v70.71a27.22,27.22,0,0,1-27.14,27.15H34.14A27.22,27.22,0,0,1,7,104.49V33.78A27.22,27.22,0,0,1,34.14,6.64Z"/><path class="cls-2" d="M93.69,22.64H79.85l11.49,20.1L66.27,22.64H52.43L65,47.18,38.85,22.64H25L38.85,54,25,116.64H38.85L65.23,49.53l-12.8,67.11H66.27L91.6,45.09,80.11,116.64H94L119,38.3Z"/></svg>