<svg id="Layer_1" data-name="Layer 1" xmlns="http://www.w3.org/2000/svg" viewBox="0 0 140 140"><defs><style>.cls-1{fill:#fff;fill-rule:evenodd;}</style></defs><title>Artboard 4</title><path class="cls-1" d="M86,8.54,17.44,13.69c-5.55.4-7.53,4.17-7.53,8.53v75.3c0,3.37,1.19,6.34,4.16,10.11l16.06,21c2.57,3.36,5.15,4.16,10.1,3.76l79.67-4.76c6.74-.39,8.72-3.56,8.72-8.91V33.91c0-2.78-1-3.57-4.36-5.95-.2-.2-.4-.2-.6-.39L101.87,12.31C96.71,8.34,94.53,8,86,8.54Zm-44,24c-6.54.4-7.93.6-11.7-2.58L21,22.61c-1-1-.59-2.18,2-2.38l66-4.75c5.55-.4,8.33,1.38,10.51,3.17l11.29,8.12c.6.2,1.79,1.59.2,1.59L42.81,32.52Zm-7.53,85.41V46c0-3.17,1-4.56,3.76-4.76l78.28-4.56c2.58-.2,3.77,1.39,3.77,4.56v71.34c0,3.17-.6,5.75-4.76,6l-74.91,4.36c-4.16.39-6.14-1.19-6.14-5ZM108.4,50c.4,2.18,0,4.36-2.18,4.56l-3.56.79v53.11A17.25,17.25,0,0,1,94.33,111c-3.76,0-4.75-1.19-7.72-4.76L62.82,69v35.87l7.54,1.79s0,4.36-6,4.36l-16.65,1c-.39-1,0-3.37,1.59-3.77L53.71,107V59.47l-6-.59a4.6,4.6,0,0,1,4.17-5.55l17.83-1.19L94.33,89.79V56.5L88,55.71A4.05,4.05,0,0,1,91.76,51Z"/></svg>