<svg id="Layer_2" data-name="Layer 2" xmlns="http://www.w3.org/2000/svg" viewBox="0 0 140 140"><defs><style>.cls-1{fill:#0a1f34;}.cls-2{fill:#56a1d8;}</style></defs><title>Artboard 3</title><path class="cls-1" d="M30.37,8.29H111.2a22.14,22.14,0,0,1,22.16,22.16v77.7a22.15,22.15,0,0,1-22.16,22.16H30.37A22.15,22.15,0,0,1,8.21,108.15V30.45A22.14,22.14,0,0,1,30.37,8.29Z"/><path class="cls-2" d="M31.92,97.52V40.93c0-.39.17-.61.55-.61.94,0,1.82,0,3.08,0s2.7-.06,4.18-.11,3.08-.06,4.79-.11,3.35-.06,5-.06A32.22,32.22,0,0,1,60.85,41.7a19.51,19.51,0,0,1,7.37,4.51,17.46,17.46,0,0,1,4,6.27,20.91,20.91,0,0,1,1.27,7.15q0,7.09-3.3,11.71a18.83,18.83,0,0,1-8.86,6.71A35.73,35.73,0,0,1,49,79.92c-1.32,0-2.2,0-2.75-.06s-1.32,0-2.36,0V97.46a.68.68,0,0,1-.61.77H32.58c-.44,0-.66-.22-.66-.71Zm12-46.58V69.41c.77.06,1.49.11,2.15.11H49a20.5,20.5,0,0,0,6.32-1,9.47,9.47,0,0,0,4.51-2.92A8.45,8.45,0,0,0,61.51,60a9.12,9.12,0,0,0-1.27-4.9,7.89,7.89,0,0,0-3.85-3.13,15.94,15.94,0,0,0-6.49-1.1c-1.42,0-2.69,0-3.73.05a12.53,12.53,0,0,0-2.26.06Zm63.9,15.12a19.64,19.64,0,0,0-5.28-1.87,29,29,0,0,0-6.16-.71,11.09,11.09,0,0,0-3.3.38,2.83,2.83,0,0,0-1.7,1.1,2.87,2.87,0,0,0-.44,1.49,2.46,2.46,0,0,0,.55,1.43,6.07,6.07,0,0,0,1.87,1.48c1.26.66,2.58,1.26,3.9,1.81a39.85,39.85,0,0,1,8.47,4,12.76,12.76,0,0,1,4.35,4.56,11.83,11.83,0,0,1,1.26,5.67,12.74,12.74,0,0,1-2.14,7.31,13.82,13.82,0,0,1-6.16,4.9,25.33,25.33,0,0,1-10,1.76,37.55,37.55,0,0,1-7.48-.72A22,22,0,0,1,80,96.91a1.08,1.08,0,0,1-.61-1V86.3a.61.61,0,0,1,.22-.5.43.43,0,0,1,.5.06,23.56,23.56,0,0,0,6.81,2.69,25.61,25.61,0,0,0,6.49.83A10.6,10.6,0,0,0,98,88.61a2.56,2.56,0,0,0,1.48-2.31,2.91,2.91,0,0,0-1.32-2.2,23.17,23.17,0,0,0-5.39-2.59,33.75,33.75,0,0,1-7.81-4,14.2,14.2,0,0,1-4.17-4.67,11.85,11.85,0,0,1-1.27-5.61,12.92,12.92,0,0,1,1.87-6.65,13.6,13.6,0,0,1,5.77-5.06,21.35,21.35,0,0,1,9.74-1.93,47.53,47.53,0,0,1,6.82.5,19.63,19.63,0,0,1,4.73,1.26,1,1,0,0,1,.55.5,3,3,0,0,1,.11.66v9a.67.67,0,0,1-.28.55,1.47,1.47,0,0,1-1,0Z"/></svg>