<svg id="Layer_2" data-name="Layer 2" xmlns="http://www.w3.org/2000/svg" viewBox="0 0 140 140"><defs><style>.cls-1{fill:#242056;}.cls-2{fill:#9696ca;}</style></defs><title>Artboard 5</title><path class="cls-1" d="M29.59,9h80.82a22.15,22.15,0,0,1,22.17,22.16v77.7A22.15,22.15,0,0,1,110.41,131H29.59A22.15,22.15,0,0,1,7.42,108.85V31.15A22.15,22.15,0,0,1,29.59,9Z"/><path class="cls-2" d="M34,96.93V43.22c0-.37.15-.57.52-.57.88,0,1.72,0,2.92-.06s2.55-.05,4-.1,2.92-.05,4.54-.11,3.18-.05,4.74-.05A30.57,30.57,0,0,1,61.4,44a18.68,18.68,0,0,1,7,4.28,16.46,16.46,0,0,1,3.81,5.94A20,20,0,0,1,73.39,61a18.63,18.63,0,0,1-3.13,11.11,17.91,17.91,0,0,1-8.39,6.36,33.92,33.92,0,0,1-11.74,1.77c-1.25,0-2.08,0-2.61,0s-1.25,0-2.24,0V96.83a.66.66,0,0,1-.57.73H34.59c-.42,0-.62-.21-.62-.68ZM45.33,52.76V70.28c.73.06,1.41.11,2,.11h2.76a19.65,19.65,0,0,0,6-.94,8.93,8.93,0,0,0,4.27-2.76A8.06,8.06,0,0,0,62,61.31a8.57,8.57,0,0,0-1.2-4.64,7.55,7.55,0,0,0-3.65-3,15.35,15.35,0,0,0-6.15-1c-1.36,0-2.56,0-3.55.05a12.51,12.51,0,0,0-2.14,0ZM80.9,55.84H90a1.17,1.17,0,0,1,1.1.83A5.12,5.12,0,0,1,91.43,58a15,15,0,0,1,.26,1.61,18,18,0,0,1,.11,1.88A19.27,19.27,0,0,1,97.38,57a16.11,16.11,0,0,1,7.92-2,.65.65,0,0,1,.73.58V65.9c0,.42-.26.58-.83.58a22.13,22.13,0,0,0-5.63.52,21.11,21.11,0,0,0-4.38,1.41,8,8,0,0,0-2.66,1.93V96.93c0,.52-.21.73-.68.73H81.58a.73.73,0,0,1-.84-.63V67.94c0-1.25,0-2.56,0-3.91s0-2.72-.1-4.07-.11-2.35-.21-3.55a.47.47,0,0,1,.36-.57c0-.05.11-.05.16,0Z"/></svg>