<svg id="Layer_5" data-name="Layer 5" xmlns="http://www.w3.org/2000/svg" viewBox="0 0 140 140"><defs><style>.cls-1{fill:#a6dce8;}.cls-2{fill:#535453;}.cls-3{fill:#010101;}.cls-4{fill:#aa9678;}.cls-5{fill:#c5b7a2;}.cls-6{fill:#796554;}.cls-7{fill:#fff;}.cls-8{fill:#bbbcbd;}.cls-9{fill:#686b6b;}.cls-10{fill:#909393;}.cls-11{fill:#e3dddb;}.cls-12{fill:#fbb041;}.cls-13{fill:#a02255;}.cls-14{fill:#df1668;}.cls-15{fill:#8c7561;}</style></defs><title>Artboard 1</title><path class="cls-1" d="M49.46,100.42c.91-.4,1.83-.78,2.76-1.13s2.11-.76,3.18-1.08c1.34-.41,2.68-.77,4.05-1.06A50,50,0,0,1,65,96.29q-1.59,5-3.47,9.86c.05.63.08,1.27.1,1.9a40.77,40.77,0,0,1,15.67,0c0-.63.05-1.27.1-1.9q-1.89-4.87-3.47-9.86a50,50,0,0,1,5.57.86c1.36.29,2.71.65,4,1.06,1.07.32,2.13.69,3.18,1.08s1.85.73,2.76,1.13a49.38,49.38,0,0,1,17.15,12.66,56.91,56.91,0,1,0-74.34,0,49.38,49.38,0,0,1,17.15-12.66"/><path class="cls-2" d="M89.5,100.42,93,112.57l1,.05c.65,0,1.1.17,1.1.82,0,1.08.06,2.3.16,3.36.88.74,2,1.59,2.77,2.41a57.67,57.67,0,0,0,8.58-6.13A49.38,49.38,0,0,0,89.5,100.42m-6.91-.12,4.15-1c-1-.39-2.11-.76-3.18-1.08-1.33-.41-2.68-.77-4-1.06A50,50,0,0,0,74,96.29q1.58,5,3.47,9.86c0,.63-.09,1.27-.1,1.9a40.85,40.85,0,0,1,8.5,2.77L82.59,100.3"/><path class="cls-3" d="M40.9,119.21c.66.38,1.32.76,2,1.12.24-1.15.62-2.73.73-3.9-.88.75-1.92,2-2.73,2.78m44.85-8.49a40.43,40.43,0,0,0-24.1-2.67A42.16,42.16,0,0,0,53,110.69l-.28,1.77H86.28l-.53-1.74"/><path class="cls-2" d="M43.53,116.77c.1-1.06.18-2,.18-3.09a1,1,0,0,1,1.1-1.07l1.06,0,3.59-12.16a49.38,49.38,0,0,0-17.15,12.66,57.76,57.76,0,0,0,8.59,6.13c.81-.82,1.66-1.61,2.53-2.36"/><path class="cls-3" d="M95.74,118.93a6.13,6.13,0,0,0,.32,1.4c.68-.36,1.35-.74,2-1.12-.82-.83-1.68-1.63-2.57-2.38l.24,2.1"/><path class="cls-4" d="M85.75,110.72l.53,1.74h6.87l-3.65-12c-.91-.4-1.83-.78-2.76-1.13l-4.15,1,3.16,10.42"/><path class="cls-5" d="M45.93,114.9l.11-.08h-.1a.25.25,0,0,1,0,.08"/><path class="cls-4" d="M93,114.82h-.11l.11.08v-.08"/><path class="cls-4" d="M92.91,114.64l-23.48,0,0,12.24a56.65,56.65,0,0,0,24.41-5.49,36.34,36.34,0,0,1-.61-6.63l-.37-.15"/><path class="cls-5" d="M69.44,114.72s-23.6,0-23.64,0c-.07,2.22-.53,4.86-.73,6.7a56.69,56.69,0,0,0,24.41,5.49l0-12.15-.06,0"/><path class="cls-6" d="M69.48,113.64h0v1.18h0Z"/><path class="cls-4" d="M87.09,105.64v0a11,11,0,0,1-1.31-1.3,11,11,0,0,0,1.31,1.3"/><path class="cls-7" d="M104.48,54.15h0m2.29,16.38h0"/><path class="cls-8" d="M106.77,70.52v0"/><path class="cls-9" d="M106.7,69.63a.08.08,0,0,1,0,0v0h0a5.07,5.07,0,0,1,0,.68s0,.08,0,.12v0h0s0,.09,0,.14c0,.22,0,.44,0,.66h0v0a.07.07,0,0,1,0,0c0,.23-.07.45-.12.68h0l1.49-1.56-1.51-1.57h0a5,5,0,0,1,.13.69"/><path class="cls-3" d="M106.7,71.41s0,0,0-.08c0-.22,0-.44,0-.66,0,0,0-.1,0-.15s0-.09,0-.14c0-.23,0-.45,0-.68a.64.64,0,0,1,0-.07,5.58,5.58,0,0,0-.13-.69c0-.07,0-.14-.07-.22a4.27,4.27,0,0,0-.53-1.16c-.08-.13-.18-.24-.27-.36a1.93,1.93,0,0,0-.3-.27l-.12-.08a1.76,1.76,0,0,0-.39-.19,2,2,0,0,0-.41-.07,1.41,1.41,0,0,0-.41.07,1.76,1.76,0,0,0-.39.19l-.12.08a2.07,2.07,0,0,0-.48.5l-.09.13a4.52,4.52,0,0,0-.54,1.17l0,0c-.05.2-.1.42-.14.64,0,.07,0,.13,0,.2a6.49,6.49,0,0,0,0,.77.41.41,0,0,0,0,.11h0c0,2.17,1,3.92,2.29,3.92a1.39,1.39,0,0,0,.63-.15,1.85,1.85,0,0,0,.33-.21l.13-.12a3.09,3.09,0,0,0,.29-.32l.18-.26a1.62,1.62,0,0,0,.1-.18,2.64,2.64,0,0,0,.18-.38l.06-.14c.07-.18.13-.37.19-.57a6.86,6.86,0,0,0,.12-.68ZM104.56,70c-.47,0-.86-.65-.86-1.47s.39-1.47.86-1.47.86.66.86,1.47S105,70,104.56,70Z"/><path class="cls-7" d="M104.56,67.05c-.47,0-.86.66-.86,1.47s.39,1.47.86,1.47.86-.65.86-1.47-.39-1.47-.86-1.47"/><path class="cls-10" d="M102.45,68.73a4.52,4.52,0,0,1,.54-1.17l.09-.13a2.07,2.07,0,0,1,.48-.5l.12-.08a1.76,1.76,0,0,1,.39-.19,1.41,1.41,0,0,1,.41-.07,1.47,1.47,0,0,1,.41.07,1.76,1.76,0,0,1,.39.19l.12.08a3.65,3.65,0,0,1,.3.27c.09.12.19.23.27.36a4.27,4.27,0,0,1,.53,1.16h0l-2-9.29-2,9.29h0"/><path class="cls-3" d="M77.62,70.43a4.91,4.91,0,0,0,0-.55h0a4.89,4.89,0,0,0-.09-.53h0c0-.17-.09-.34-.14-.51h0c-.06-.16-.12-.32-.19-.48h0a5.34,5.34,0,0,0-2.86-2.77h0a5.31,5.31,0,0,0-1-.29h0a5.07,5.07,0,0,0-1-.1,5.58,5.58,0,0,0-1,.09h0a5.18,5.18,0,0,0-1,.28h0a5.61,5.61,0,0,0-.88.45,6.44,6.44,0,0,0-.77.61v0h0a5.77,5.77,0,0,0-1,1.24v0c-.08.14-.15.29-.22.44a.08.08,0,0,0,0,.05c-.06.13-.12.28-.17.42a.19.19,0,0,1,0,.08c0,.14-.07.28-.11.42a.45.45,0,0,1,0,.11l-.06.42a.59.59,0,0,0,0,.13A5.3,5.3,0,0,0,67,71.54v0a5.34,5.34,0,0,0,.3,1h0a5.28,5.28,0,0,0,2.34,2.64h0c.14.08.29.15.44.22l0,0,.43.16.07,0,.42.11.11,0,.42.06.12,0a5.34,5.34,0,0,0,5.92-5.33v-.08Zm-5.36-.63a2,2,0,1,1,2-2A2,2,0,0,1,72.26,69.8Z"/><path class="cls-7" d="M72.26,65.77a2,2,0,0,0,0,4h0a2,2,0,0,0,0-4"/><path class="cls-8" d="M68.57,66.62h0v0l3.69-11.29V52.63A31.36,31.36,0,0,0,66,52c-.72,0-1.44,0-2.15.08l-.31,0a31.76,31.76,0,0,0-10.74,2.79,34.36,34.36,0,0,0-8,5.13h0c-.65.55-1.28,1.13-1.88,1.73l-.35.33c-.57.58-1.12,1.18-1.66,1.79l-.34.41q-.81.95-1.56,2l-.12.17c-.47.64-.93,1.3-1.36,2l-.26.4c-.35.55-.67,1.13-1,1.7H53l15.53-3.84"/><path class="cls-11" d="M82.77,65.35q.06-.66.09-1.32c0-.6,0-1.19.06-1.79s0-.93,0-1.39v-.41c0-1.19-.06-2.39-.13-3.58h0l-1.33-.76,0,0-.35-.2h0l-.24-.14,0,0a1,1,0,0,0-.17-.1c-.78-.4-1.56-.77-2.37-1.11a41.37,41.37,0,0,0-5.94-1.86v2.68L76,66.62h0a5.5,5.5,0,0,1,1,1.23h0c.08.15.16.3.23.46h0c.07.16.13.32.19.48h0c.05.17.1.34.14.51h0a4.51,4.51,0,0,1,.09.53h0a4.91,4.91,0,0,1,0,.55v0h4.49a48.57,48.57,0,0,0,.64-5,.66.66,0,0,0,0-.14"/><path class="cls-12" d="M88.64,61.35v0"/><path class="cls-10" d="M68.6,66.6a5.12,5.12,0,0,1,.78-.61,4.78,4.78,0,0,1,.87-.45h0a5.18,5.18,0,0,1,1-.28h0a5.66,5.66,0,0,1,1-.09,5,5,0,0,1,1,.1h0a5.55,5.55,0,0,1,1,.3A5.39,5.39,0,0,1,76,66.63h0L72.29,55.31,68.6,66.6"/><path class="cls-9" d="M67.3,72.53a5.34,5.34,0,0,1-.3-1v0A5.3,5.3,0,0,1,66.93,70a.59.59,0,0,1,0-.13L67,69.4a.45.45,0,0,0,0-.11c0-.14.07-.28.11-.42l0-.08c0-.14.11-.29.17-.42a.08.08,0,0,1,0-.05c.07-.15.14-.3.22-.44v0a5.77,5.77,0,0,1,1-1.24L53,70.46h0l15.38,3.76a5.52,5.52,0,0,1-1.09-1.68h0"/><path class="cls-11" d="M102.25,69.62c0-.07,0-.13,0-.2,0-.22.09-.44.14-.64,0,0,0,0,0-.07l2-9.29V54.13A8.26,8.26,0,0,0,99.2,52a9.07,9.07,0,0,0-6.13,2.88A22.71,22.71,0,0,0,88.8,61l-.16.3c.35.3.68.6,1,.91.76.69,1.5,1.4,2.23,2.12l1,1L94,66.49c.64.67,1.27,1.35,1.9,2s1.06,1.18,1.58,1.78h0l.18.19h4.57a.41.41,0,0,1,0-.11,6.49,6.49,0,0,1,0-.77M88.64,61.37v0l0,0v0"/><path class="cls-2" d="M33.46,76.3l0-.1a42.43,42.43,0,0,1,2.12-4.66c.12-.23.24-.47.37-.7l.22-.38c.33-.57.65-1.15,1-1.7l.26-.4c.43-.67.89-1.33,1.36-2l.12-.17q.75-1,1.56-2l.34-.41c.54-.61,1.09-1.21,1.66-1.79l.35-.33c.6-.6,1.23-1.18,1.88-1.73h0c2.56-8.56,10.81-13.83,20.07-13.83a20.49,20.49,0,0,1,10.61,3c3.26,2,5.48,3.94,7.2,7.34l0,0c0,.09.09.17.13.26h0a32.78,32.78,0,0,1,4.12,3q.66.55,1.29,1.14l.42.38v0h0c0-.1.1-.19.14-.29,1.31-8.23,5.45-12.72,9.74-12.72,3.23,0,5.57,1.92,7.35,7.11v.05h0a19.45,19.45,0,0,1,1.46,1.8h0l0,0h0a1.55,1.55,0,0,0,.07.23h0l-.07-.27A39.92,39.92,0,0,0,29.64,70.07a39.51,39.51,0,0,0,2,12.43v0a41.6,41.6,0,0,1,1.83-6.17"/><path class="cls-7" d="M108,70.51l-1.39,1.56h0a4.38,4.38,0,0,1-.19.58l-.06.14a3.26,3.26,0,0,1-.18.38,1.62,1.62,0,0,1-.1.18l-.18.26a3,3,0,0,1-.29.32l-.13.12a1.85,1.85,0,0,1-.33.21,1.39,1.39,0,0,1-.63.15c-1.27,0-2.29-1.75-2.29-3.92H97.6q1.31,1.5,2.55,3c.81,1,1.6,2,2.38,3l.12.15c.74.94,1.48,1.9,2.21,2.86l.21.27,2.31,3.07a39.91,39.91,0,0,0,2.09-12.35l-1.29,0-.2.06"/><path class="cls-3" d="M63.49,52.08l.31,0C64.52,52,65.24,52,66,52a31.64,31.64,0,0,1,6.34.65h0a41.37,41.37,0,0,1,5.94,1.86c.81.34,1.59.71,2.37,1.11l.17.1,0,0,.24.14h0l.35.2,0,0,1.24.71.06,0,0,0c0-.09-.09-.17-.13-.26l0,0A20.78,20.78,0,0,0,75,48.22,20.35,20.35,0,0,0,44.74,60a34.36,34.36,0,0,1,8-5.13,31.76,31.76,0,0,1,10.74-2.79"/><path class="cls-8" d="M107.38,57.33h0l0,0h0a19.45,19.45,0,0,0-1.46-1.8l0,0c-.22-.24-.45-.47-.68-.7l-.27-.24c-.15-.13-.29-.27-.44-.39v5.29l2,9.29h0l.06.21L108,70.51h1.48c0-.14,0-.27,0-.41h0a39.8,39.8,0,0,0-2-12.53h0a1.55,1.55,0,0,1-.07-.23"/><path class="cls-3" d="M93.07,54.9A9.07,9.07,0,0,1,99.2,52a8.26,8.26,0,0,1,5.28,2.11v0h0c.15.12.29.26.44.39l.27.24c.23.23.46.46.68.7l0,0h0v-.05c-1.78-5.19-4.64-8.55-7.87-8.55-4.28,0-7.91,5.93-9.22,14.16h0a22.71,22.71,0,0,1,4.27-6.14m-5.79,50.6A11,11,0,0,1,86,104.2,12.59,12.59,0,0,1,85,103a4.38,4.38,0,0,1-.28-.42,12.32,12.32,0,0,1-.74-1.5,7.9,7.9,0,0,1-.45-1.58,11.49,11.49,0,0,1-.42-3.38c0-.4.06-.82.12-1.25a10.4,10.4,0,0,1,.25-1.26,15,15,0,0,1,1.75-4.12l.22-.5c.28-.47.35-.45.62-.91C89.9,81.63,92,76.77,91,69.28c-.12-.76-.24-1.53-.38-2.29-.09.55-.18,1.1-.28,1.65a4.13,4.13,0,0,1-.18.48c-1.65,4.89-4.26,8.49-8,12.56-.52.56-1,1.12-1.59,1.67-1,1-1.92,2-2.89,2.93-.4.41-.82.82-1.24,1.23s-.87,1.2-1.44,1.81c-.35,1-.76,2.1-1.1,3.28l-.45-.17a53.34,53.34,0,0,1-12.15-6.58,53.2,53.2,0,0,0,10.06,9.47,21.49,21.49,0,0,0,1.81,1.17c-.26,4.12,1.56,8.08,9.77,9.26a16.7,16.7,0,0,0,4.24,0s.08,0,.08-.07.07-.08.07-.08"/><path class="cls-13" d="M82.88,94.88a50.72,50.72,0,0,0,29.29-4.26c.27-.13.57.21.84.07,0,0-7.66,7.82-16.8,12.24-.27.13-.54.27-.81.39-.88.41-1.78.76-2.68,1.08a25.36,25.36,0,0,1-5.34,1.35l-.25,0,0-.1v0a11,11,0,0,1-1.31-1.3,13.78,13.78,0,0,1-1-1.22,12.47,12.47,0,0,1-1.07-1.88,10.53,10.53,0,0,1-.63-1.7,10.74,10.74,0,0,1-.42-3.38,10.37,10.37,0,0,1,.11-1.25l.06,0"/><path class="cls-12" d="M77.66,86.58c1-1,1.94-1.94,2.89-2.93.53-.55,1.06-1.11,1.58-1.67,3.75-4.07,6.5-7.88,8.15-12.77,0-.12.08-.27.12-.44l0-.08c0-.18.07-.39.11-.62s.51-.47.53-.62a19.41,19.41,0,0,0-2.42-6.08v0l0,0L88.21,61q-.63-.59-1.29-1.14a32.78,32.78,0,0,0-4.12-3c.07,1.19.12,2.39.13,3.58v.41c0,.46,0,.92,0,1.39s0,1.19-.06,1.79q0,.66-.09,1.32a.66.66,0,0,1,0,.14,48.57,48.57,0,0,1-.64,5L81.59,73c-1.1,4.46-3.33,8.5-5.17,12.68-.49,1.1-1,2.22-1.35,3.36l-.12.33c.48-.51,1-1,1.47-1.51l1.24-1.23"/><path class="cls-2" d="M53.56,110.56a36.91,36.91,0,0,1,8.09-2.51c0-.63,0-1.27-.1-1.9q1.88-4.87,3.47-9.86a50,50,0,0,0-5.57.86c-1.37.29-2.71.65-4.05,1.06-1.07.32-2.13.69-3.18,1.08l4.15,1L53,110.78l.53-.22"/><path class="cls-14" d="M104.86,79.51c-.73-1-1.47-1.92-2.21-2.86l-.12-.15c-.79-1-1.59-2-2.41-3s-1.66-2-2.52-3l-.16-.19c-.7-.8-1.41-1.6-2.14-2.39-.44-.48-.89-1-1.34-1.43s-.7-.74-1.06-1.1l-1-1c-.73-.72-1.47-1.43-2.23-2.12l-1-.91h0a45.09,45.09,0,0,1,2,6.34c.11.56.2,1.1.27,1.64,1,7.48-1.39,12.37-5.2,18.79l-.84,1.41a15.08,15.08,0,0,0-1.75,4.12,12.76,12.76,0,0,0-.25,1.26A50.21,50.21,0,0,0,113,90.69s-2.26-3.31-5.65-7.86l-2.29-3-.21-.27"/><path class="cls-4" d="M52.64,112.65l3.73-12.35-4.15-1c-.93.35-1.85.73-2.76,1.13l-3.69,12.23,4.12.07,2.75-.07"/><path class="cls-7" d="M55.26,107.31c.37.14.74.26,1.11.39a39.82,39.82,0,0,0,28.09-.64l.73-.31,1.16-.52,1-.48-.25,0a16.7,16.7,0,0,1-4.24,0c-8.21-1.18-10-5.14-9.77-9.26a21.49,21.49,0,0,1-1.81-1.17,53.2,53.2,0,0,1-10.06-9.47A53.34,53.34,0,0,0,73.4,92.43l.45.17c.34-1.18.75-2.29,1.1-3.28l.12-.33c.4-1.14.86-2.26,1.35-3.36,1.84-4.18,4.07-8.22,5.17-12.68l.53-2.49h-4.5v0a5.35,5.35,0,0,1-.91,3,5.45,5.45,0,0,1-2.36,1.94,5.35,5.35,0,0,1-2.65.39l-.12,0-.42-.06-.11,0-.42-.11-.07,0-.43-.16,0,0c-.15-.07-.3-.14-.44-.22h0a5.55,5.55,0,0,1-1.25-1L53,70.46H36.21l-.22.38c-.13.23-.25.47-.37.7-.42.78-.8,1.57-1.17,2.38s-.66,1.51-1,2.28l0,.1a41.6,41.6,0,0,0-1.83,6.17,40,40,0,0,0,14.51,19.88l.6.41A39.27,39.27,0,0,0,50.27,105a40.44,40.44,0,0,0,5,2.34"/><path class="cls-15" d="M95.53,116.85c-.11-1.06-.16-2.14-.17-3.21a1.18,1.18,0,0,0-1.18-1.18H44.78a1.18,1.18,0,0,0-1.18,1.18,31.08,31.08,0,0,1-.17,3.21,31.43,31.43,0,0,1-.53,3.48c.72.37,1.44.74,2.17,1.09a34.17,34.17,0,0,0,.86-6.52.25.25,0,0,0,0-.08H93v.08a35,35,0,0,0,.86,6.52c.73-.35,1.46-.71,2.17-1.09a31.43,31.43,0,0,1-.53-3.48"/></svg>