<svg id="Layer_4" data-name="Layer 4" xmlns="http://www.w3.org/2000/svg" viewBox="0 0 140 140"><defs><style>.cls-1{fill:#70cff0;}</style></defs><title>Artboard 8</title><path class="cls-1" d="M137.48,71.94c0-8.95-11.21-17.43-28.39-22.69,4-17.51,2.21-31.44-5.56-35.9a12,12,0,0,0-6.17-1.54V18a6.34,6.34,0,0,1,3.14.71c3.75,2.15,5.37,10.33,4.1,20.84-.3,2.59-.79,5.32-1.4,8.1a133.76,133.76,0,0,0-17.48-3A133.37,133.37,0,0,0,74.26,30.83c9-8.34,17.4-12.91,23.13-12.91V11.78c-7.57,0-17.48,5.39-27.5,14.76C59.86,17.23,50,11.89,42.38,11.89V18c5.7,0,14.15,4.54,23.13,12.83A128.79,128.79,0,0,0,54.14,44.6a127.92,127.92,0,0,0-17.51,3c-.64-2.76-1.11-5.43-1.44-8-1.29-10.52.31-18.69,4-20.87a6.2,6.2,0,0,1,3.17-.71V11.92a12.24,12.24,0,0,0-6.22,1.54c-7.74,4.46-9.47,18.36-5.48,35.82C13.55,54.56,2.4,63,2.4,71.94S13.61,89.37,30.79,94.62c-4,17.52-2.2,31.45,5.56,35.91a12.17,12.17,0,0,0,6.2,1.54c7.57,0,17.48-5.4,27.5-14.76C80.07,126.62,90,132,97.56,132a12.34,12.34,0,0,0,6.22-1.54c7.74-4.46,9.47-18.37,5.48-35.82,17.07-5.26,28.22-13.74,28.22-22.66ZM101.63,53.57c-1,3.56-2.28,7.22-3.72,10.88-1.12-2.2-2.31-4.41-3.6-6.61s-2.62-4.35-4-6.44c3.91.58,7.68,1.29,11.29,2.17ZM89,82.9c-2.15,3.71-4.35,7.24-6.63,10.51q-6.17.54-12.45.55c-4.16,0-8.31-.19-12.39-.52C55.27,90.16,53,86.67,50.89,83s-4-7.27-5.73-11c1.71-3.69,3.64-7.38,5.7-11s4.35-7.24,6.64-10.51c4.1-.36,8.26-.55,12.44-.55s8.32.19,12.39.52C84.62,53.77,86.85,57.26,89,61s4,7.27,5.73,11C93,75.6,91.09,79.29,89,82.9Zm8.89-3.58c1.49,3.69,2.76,7.38,3.8,11-3.6.89-7.4,1.63-11.34,2.21,1.35-2.12,2.7-4.3,4-6.53s2.45-4.43,3.57-6.63ZM70,108.69a110.87,110.87,0,0,1-7.66-8.81c2.48.11,5,.2,7.57.2s5.15-.06,7.66-.2A106.47,106.47,0,0,1,70,108.69ZM49.51,92.48q-5.86-.87-11.29-2.18c1-3.55,2.29-7.21,3.72-10.87,1.13,2.2,2.31,4.4,3.61,6.6S48.16,90.38,49.51,92.48Zm20.35-57.3A112.62,112.62,0,0,1,77.51,44c-2.48-.11-5-.19-7.57-.19s-5.15.05-7.65.19A106.2,106.2,0,0,1,69.86,35.18ZM49.48,51.4c-1.35,2.12-2.69,4.29-4,6.52s-2.45,4.41-3.58,6.61c-1.49-3.69-2.75-7.38-3.8-11,3.61-.85,7.41-1.59,11.34-2.17ZM24.57,85.87c-9.75-4.16-16-9.61-16-13.93s6.3-9.8,16.05-13.93c2.36-1,4.95-1.93,7.62-2.78A132.5,132.5,0,0,0,38.39,72a130.7,130.7,0,0,0-6.11,16.69c-2.73-.86-5.32-1.79-7.71-2.81Zm14.81,39.34c-3.75-2.14-5.37-10.32-4.1-20.84.3-2.59.8-5.31,1.4-8.09a133.76,133.76,0,0,0,17.48,3A134.5,134.5,0,0,0,65.62,113c-9,8.35-17.4,12.92-23.13,12.92a6.58,6.58,0,0,1-3.11-.75Zm65.31-21c1.29,10.52-.31,18.7-4,20.87a6.1,6.1,0,0,1-3.17.72c-5.7,0-14.15-4.54-23.13-12.83A129.8,129.8,0,0,0,85.74,99.25a128.34,128.34,0,0,0,17.52-3A79.86,79.86,0,0,1,104.69,104.23Zm10.6-18.36c-2.37,1-5,1.93-7.63,2.78a132.51,132.51,0,0,0-6.19-16.77,130,130,0,0,0,6.11-16.68c2.72.85,5.31,1.79,7.74,2.81,9.74,4.15,16.05,9.61,16.05,13.93s-6.34,9.8-16.08,13.93Z"/><circle class="cls-1" cx="69.91" cy="71.94" r="12.58"/></svg>