<svg id="Layer_6" data-name="Layer 6" xmlns="http://www.w3.org/2000/svg" viewBox="0 0 140 140"><defs><style>.cls-1{fill:#fcfcfc;}</style></defs><title>Artboard 2</title><path class="cls-1" d="M94.61,117.64c-10.91,1-20-11.75-27-18.2-3.53,25.42-41.93,23-41.93-2.77V48.83a20.74,20.74,0,0,1,3-10.83,21.19,21.19,0,0,1,18-10.21H94.61c25.8,0,28.26,38.4,2.76,41.85L109.51,81.7C122.79,94.22,112.81,118.18,94.61,117.64Zm-5.84-15.21c7.53,7.76,19.51-4.22,11.75-11.75l-21-21H67.81V81.47L85.93,99.59ZM38.47,96.6c-.15,10.75,16.82,10.75,16.59,0V48.75c.15-5.37-5.53-9.59-10.68-8a5,5,0,0,0-.61.23,8.41,8.41,0,0,0-5.38,7.91V96.6ZM94.61,57.05c10.75.15,10.75-16.74,0-16.59H66.12c2.15,4.53,1.61,11.67,1.69,16.59Z"/></svg>