<svg id="Layer_4" data-name="Layer 4" xmlns="http://www.w3.org/2000/svg" viewBox="0 0 140 140"><defs><style>.cls-1{fill:#cf659b;}</style></defs><title>Artboard 2</title><path class="cls-1" d="M117.22,75.17a25.82,25.82,0,0,0-11.36,2.65c-1.18-2.33-2.35-4.36-2.55-5.88a16.21,16.21,0,0,1-.22-4.94,39.58,39.58,0,0,1,1.49-5.34c0-.22-.27-1.3-2.79-1.32s-4.7.49-4.94,1.15a27.5,27.5,0,0,0-1.06,3.74c-.44,2.3-5,10.46-7.66,14.74a14.94,14.94,0,0,1-1.74-4.31,16.21,16.21,0,0,1-.22-4.94,39.1,39.1,0,0,1,1.5-5.34c0-.22-.27-1.3-2.8-1.32s-4.7.49-4.94,1.15-.51,2.23-1.05,3.74-6.64,15.13-8.23,18.68c-.81,1.82-1.52,3.26-2,4.24s0,.07-.08.17c-.44.83-.68,1.3-.68,1.3v0c-.34.61-.71,1.2-.88,1.2a8.14,8.14,0,0,1,0-3.89c.9-4.73,3.11-12.09,3.08-12.36s.42-1.42-1.42-2.09a2.23,2.23,0,0,0-2.57.45c-.15,0-.27.39-.27.39s2-8.3-3.79-8.3c-3.63,0-8.62,3.94-11.09,7.54l-8.43,4.6c-1.34.74-2.74,1.52-4.06,2.23l-.27-.3C31.21,75.37,18.26,70.08,18.8,60c.19-3.65,1.47-13.27,24.87-24.92,19.17-9.55,34.52-6.93,37.19-1.1,3.79,8.32-8.2,23.79-28.13,26-7.59.86-11.58-2.08-12.58-3.18s-1.2-1.2-1.6-1c-.63.34-.24,1.37,0,2,.59,1.55,3,4.29,7.2,5.66,3.65,1.2,12.56,1.86,23.33-2.3,12.07-4.68,21.5-17.65,18.73-28.5C85,21.68,66.68,18.05,49.38,24.2,39.07,27.87,27.9,33.6,19.87,41.12,10.33,50,8.81,57.81,9.44,61.05c2.23,11.53,18.12,19,24.49,24.6l-.88.49c-3.19,1.57-15.31,7.91-18.34,14.62-3.43,7.59.54,13,3.18,13.78,8.18,2.28,16.55-1.81,21.08-8.54s4-15.48,1.89-19.47l-.08-.15,2.5-1.46c1.61-1,3.21-1.84,4.6-2.6a30.46,30.46,0,0,0-1.64,8.32c-.34,4.31,1.42,9.9,3.75,12.1a4.16,4.16,0,0,0,3,1c2.69,0,3.92-2.23,5.26-4.9,1.67-3.25,3.14-7,3.14-7S59.56,102,64.58,102c1.83,0,3.67-2.37,4.5-3.59v0l.15-.24c.1-.16.2-.31.29-.47v0c.74-1.27,2.38-4.19,4.83-9,3.16-6.22,6.19-14,6.19-14a43.47,43.47,0,0,0,1.2,5,48.46,48.46,0,0,0,2.62,5.88c-.73,1-1.18,1.61-1.18,1.61l0,0c-.59.78-1.25,1.61-1.93,2.45-2.5,3-5.49,6.39-5.88,7.37a2,2,0,0,0,.54,2.69,4.86,4.86,0,0,0,3.08.49,13.64,13.64,0,0,0,4.61-1.06,15.82,15.82,0,0,0,4-2.08,8.84,8.84,0,0,0,3.8-7.81,15.8,15.8,0,0,0-1.45-5.5c.22-.32.44-.64.66-1a103.7,103.7,0,0,0,6.86-11.88,43.84,43.84,0,0,0,1.2,5,33.88,33.88,0,0,0,2.23,5,21.79,21.79,0,0,0-6.69,8.64c-1.44,4.16-.32,6,1.81,6.49a6.5,6.5,0,0,0,3.36-.69,15.07,15.07,0,0,0,4.23-2.17c2.45-1.82,4.8-4.34,4.68-7.74a14.81,14.81,0,0,0-1-4.58,23.78,23.78,0,0,1,12.14-1.39c10.89,1.27,13,8.07,12.63,10.91a7.3,7.3,0,0,1-3.45,4.9c-.76.47-1,.64-.93,1,.1.51.44.49,1.1.39a8.47,8.47,0,0,0,5.93-7.56c.29-6.74-6.1-14.08-17.43-14Zm-84,28.33c-3.6,3.94-8.66,5.43-10.82,4.16-2.32-1.35-1.42-7.15,3-11.34A58.91,58.91,0,0,1,33.88,90l2.23-1.34a2,2,0,0,1,.24-.15l.56-.34a15.61,15.61,0,0,1-3.72,15.35ZM59.51,85.6C58.26,88.66,55.62,96.52,54,96.08c-1.37-.37-2.21-6.32-.27-12.19A27.36,27.36,0,0,1,58,76c2-2.2,4.14-2.94,4.68-2C63.35,75.17,60.29,83.69,59.51,85.6ZM81.23,96c-.54.27-1,.47-1.25.32s.22-.46.22-.46,2.72-2.92,3.79-4.26c.61-.79,1.35-1.69,2.13-2.72v.29c0,3.53-3.38,5.88-4.89,6.83ZM98,92.16c-.39-.29-.34-1.2,1-4a15.35,15.35,0,0,1,3.72-4.8,6.1,6.1,0,0,1,.37,2.11C103,89.84,99.88,91.48,98,92.16Z"/></svg>