<svg id="Layer_5" data-name="Layer 5" xmlns="http://www.w3.org/2000/svg" viewBox="0 0 140 140"><defs><style>.cls-1{fill:#95bf47;}.cls-2{fill:#5f8f3e;}.cls-3{fill:#fff;}</style></defs><title>Artboard 8</title><path class="cls-1" d="M106.64,32.31a1.13,1.13,0,0,0-1-1l-9.37-.7-6.89-6.84a2.81,2.81,0,0,0-2.53-.33l-3.47,1.08c-2.08-6-5.74-11.46-12.18-11.46l-.54,0a7.85,7.85,0,0,0-6.07-3.47c-15,0-22.17,18.75-24.41,28.28L29.66,41.2c-3.25,1-3.35,1.12-3.78,4.19C25.56,47.71,17,113.56,17,113.56L83.39,126l36-7.78s-12.62-85.32-12.7-85.9ZM79.7,25.7l-5.62,1.74c0-.4,0-.79,0-1.21a27.75,27.75,0,0,0-1.34-9.07C76.07,17.58,78.28,21.36,79.7,25.7ZM68.63,17.9A27.9,27.9,0,0,1,70.15,28v.65l-11.6,3.59C60.79,23.63,65,19.47,68.63,17.9Zm-4.46-4.22a3.41,3.41,0,0,1,1.93.65c-4.81,2.26-10,8-12.14,19.34l-9.17,2.84c2.55-8.68,8.61-22.83,19.38-22.83Z"/><path class="cls-2" d="M105.63,31.36l-9.37-.7-6.89-6.84a1.61,1.61,0,0,0-1-.44L83.4,126l35.94-7.78s-12.62-85.32-12.7-85.9a1.13,1.13,0,0,0-1-1"/><path class="cls-3" d="M71.19,51.23,66.76,64.41a20.46,20.46,0,0,0-8.65-2.07c-7,0-7.33,4.38-7.33,5.48,0,6,15.7,8.33,15.7,22.44,0,11.1-7,18.24-16.53,18.24-11.39,0-17.21-7.09-17.21-7.09l3-10.07s6,5.14,11,5.14A4.45,4.45,0,0,0,51.47,92c0-7.85-12.88-8.21-12.88-21.11,0-10.87,7.8-21.38,23.54-21.38,6.06,0,9.06,1.74,9.06,1.74"/></svg>