<svg id="Layer_1" data-name="Layer 1" xmlns="http://www.w3.org/2000/svg" xmlns:xlink="http://www.w3.org/1999/xlink" viewBox="0 0 140 140"><defs><style>.cls-1{fill-rule:evenodd;fill:url(#linear-gradient);}</style><linearGradient id="linear-gradient" x1="70" y1="208.75" x2="70" y2="86.47" gradientTransform="translate(0 -77.06)" gradientUnits="userSpaceOnUse"><stop offset="0" stop-color="#325ba9"/><stop offset="1" stop-color="#4b7bbe"/></linearGradient></defs><title>Artboard 6</title><g id="Logos"><path class="cls-1" d="M116.75,9.41H23.45A14.38,14.38,0,0,0,9,23.85V117a14.39,14.39,0,0,0,14.45,14.45h93.1A14.39,14.39,0,0,0,131,117V24.06A14.15,14.15,0,0,0,116.75,9.41ZM61.57,97.5a4.89,4.89,0,0,1-4.82,4.81H36.49a4.89,4.89,0,0,1-4.82-4.81V36.9a4.89,4.89,0,0,1,4.82-4.82H57a4.89,4.89,0,0,1,4.82,4.82V97.5Zm47.15-27.9a5.05,5.05,0,0,1-4.81,5H83.44a4.88,4.88,0,0,1-4.81-4.81V36.9a4.88,4.88,0,0,1,4.81-4.82h20.47a4.88,4.88,0,0,1,4.81,4.82Z"/></g></svg>