<svg id="Layer_5" data-name="Layer 5" xmlns="http://www.w3.org/2000/svg" viewBox="0 0 140 140"><defs><style>.cls-1{fill:#3f4ca0;}</style></defs><title>Artboard 3</title><path class="cls-1" d="M13.09,69.93a56.91,56.91,0,1,1,56.91,57,56.9,56.9,0,0,1-56.91-57ZM68.85,89.42a56.48,56.48,0,0,1-13.16-1.18,10.08,10.08,0,0,1-7.18-5.78Q46.58,78,46.64,68.73a89.33,89.33,0,0,1,.61-9.67q.55-4.7,1.11-7.73l.39-2v-.18a1.16,1.16,0,0,0-1-1.14l-7.34-1.14h-.16a1.16,1.16,0,0,0-1.12.89c-.12.47-.2.82-.42,1.94C38.33,51.84,38,54,37.51,57a96.93,96.93,0,0,0-.82,10.07,51.83,51.83,0,0,0,0,7q.26,9.33,3.21,14.93t10,8q7,2.46,19.61,2.4h1.06q12.58.06,19.61-2.4t10-8q3-5.59,3.21-14.93a51.83,51.83,0,0,0,0-7A94.27,94.27,0,0,0,102.52,57c-.43-3-.82-5.13-1.23-7.34-.24-1.12-.3-1.47-.42-1.94a1.17,1.17,0,0,0-1.13-.89h-.19L92.21,48a1.14,1.14,0,0,0-1,1.14.54.54,0,0,0,0,.18l.39,2q.56,3,1.12,7.73a91.93,91.93,0,0,1,.6,9.67q.09,9.26-1.87,13.72a10.07,10.07,0,0,1-7.15,5.79A55.77,55.77,0,0,1,71.2,89.42Z"/></svg>