<svg id="Layer_5" data-name="Layer 5" xmlns="http://www.w3.org/2000/svg" viewBox="0 0 140 140"><defs><style>.cls-1{fill:#6f5aa6;fill-rule:evenodd;}</style></defs><title>Artboard 4</title><path class="cls-1" d="M58.51,56.57c-3.26,0-5.38,1.07-7.27,4.63L42.6,77.49V63c0-4.32-2.05-6.45-5.84-6.45s-5.38,1.29-7.28,4.93l-8.18,16V63.17c0-4.63-1.9-6.6-6.52-6.6H5.38c-3.56,0-5.53,1.67-5.53,4.7s1.89,4.85,5.38,4.85H9.1V84.39c0,5.15,3.48,8.18,8.48,8.18s7.28-2,9.78-6.59l5.46-10.23v8.64c0,5.08,3.33,8.18,8.41,8.18s7-1.74,9.85-6.59L63.66,64.76c2.73-4.62.84-8.19-5.22-8.19Z"/><path class="cls-1" d="M82.16,56.57c-10.31,0-18.12,7.66-18.12,18s7.89,18,18.12,18a18,18,0,1,0,0-36Zm0,24.94c-3.87,0-6.52-2.88-6.52-6.9s2.65-7,6.52-7,6.52,3,6.52,7S86.1,81.51,82.16,81.51Z"/><path class="cls-1" d="M120.89,56.57a17.68,17.68,0,0,0-18.12,18c0,10.39,7.88,18,18.12,18S139,84.92,139,74.61A17.72,17.72,0,0,0,120.89,56.57Zm0,24.94c-3.94,0-6.45-2.88-6.45-6.9s2.58-7,6.45-7,6.51,3,6.51,7S124.83,81.51,120.89,81.51Z"/></svg>