<svg id="Layer_1" data-name="Layer 1" xmlns="http://www.w3.org/2000/svg" viewBox="0 0 469.53 349.34"><defs><style>.cls-1{fill:#f9f9f9;}</style></defs><title>aS logo</title><path class="cls-1" d="M467.25,187.35H450.86c-2.44-11.7-5.74-23-12.38-33-12.66-19.06-31.15-29.06-53.06-33.56a92.93,92.93,0,0,0-31.89-1.42c-31.68,4.46-39.48,41.23-22.56,61.48,6.74,8.07,15.34,13.61,24.69,17.94,20.55,9.5,41.3,18.56,61.87,28,16.06,7.39,31.43,16,44.08,28.64,21.91,22,30.45,48.79,28.39,79.32-1.58,23.43-9.54,44.15-26.54,60.91-12.41,12.23-27.33,20.25-43.72,25.56-34.63,11.23-69.66,12.66-104.92,3.17a89.08,89.08,0,0,1-28.77-13.7C274,402,267.44,390.32,266.7,375.56c-.39-7.72-.07-15.49-.07-24,7.23,5.73,13.05,11.15,19.63,15.42,26.2,17,54.82,25.73,86.23,22.72,19.87-1.9,35.57-10.83,43.44-30.21,7.24-17.83,2.35-35.77-13.93-46-11.52-7.24-24.24-12.66-36.7-18.29-22.47-10.16-45.41-19.27-66-33.24-26.72-18.16-39.27-43.78-40.56-75.51-.76-18.57,1.16-36.7,9.86-53.48,13.32-25.7,35-40.87,62.7-47,46.81-10.38,90.91-3.5,131.46,23,3.4,2.22,4.64,4.7,4.6,8.81-.23,21.4-.12,42.8-.13,64.2Z" transform="translate(-20.77 -81.33)"/><path class="cls-1" d="M194.34,382.38c-8.4,7.9-16.38,16.48-25.46,23.69-16,12.71-34.94,18.69-55.09,21-15.51,1.77-30.9,1.42-45.86-3.49-26.82-8.8-43-26.92-46.34-55.24-3-25.16,2-48.37,19.38-67.77,12.56-14,28.62-22.61,46.58-26.9,16.23-3.89,32.91-5.93,49.37-8.89,8.8-1.58,17.64-3,26.33-5.13,16.38-4,21.66-13.09,19.63-31.21-3.74-33.26-37.64-44.82-63.92-32.84-17.12,7.81-27,21.53-32.13,39.19-.36,1.23-2,2.94-3.06,3-14.3.43-28.61.6-42.92.82a7.81,7.81,0,0,1-1.6-.39c0-12.81,3-24.79,9.73-35.74,11.13-18.05,27.37-30,46.71-37.76,34-13.64,68.58-15.51,103-2.12,32,12.46,49.06,37,51,70.87,1.57,26.95.78,54,1.06,81.08.2,19.94.14,39.9.73,59.84s7.89,36.77,24.69,49.89c-4.22.59-7.66,1.24-11.12,1.54-16,1.4-31.67.49-46.65-6.31-11.8-5.35-19-14.23-22-26.67C195.59,389.18,195,385.48,194.34,382.38Zm-11-92.23c-13.78,3.23-27.51,5.92-40.91,9.78A162.44,162.44,0,0,0,113.52,311c-13.9,7.1-21.72,18.85-22.81,34.87-1.47,21.54,13.08,37.82,34.58,37.7A59.75,59.75,0,0,0,163,370.47c12.83-10.2,19.57-23.82,20.26-40C183.83,317.08,183.38,303.68,183.38,290.15Z" transform="translate(-20.77 -81.33)"/></svg>